<?xml version='1.0' encoding='utf-8'?>
<svg xmlns="http://www.w3.org/2000/svg" width="2000" height="2000" viewBox="0 0 2000 2000"><defs><clipPath id="clip-32">
<path clip-rule="nonzero" d="M 89 1236 L 1230 1236 L 1230 1510 L 89 1510 Z M 89 1236 " />
</clipPath>
<clipPath id="clip-33">
<path clip-rule="evenodd" d="M 228.039062 1347.648438 C 232.675781 1346.824219 220.234375 1347.960938 213.980469 1346.132812 C 209.386719 1344.789062 206.304688 1339.449219 208.140625 1334.632812 C 216.074219 1313.808594 261.019531 1320.78125 278.125 1320.457031 C 281.523438 1320.390625 284.078125 1319.863281 287.402344 1319.015625 C 290.339844 1318.265625 293.3125 1317.746094 296.28125 1317.128906 C 298.839844 1316.59375 301.78125 1316.175781 304.179688 1315.042969 C 361.628906 1287.921875 378.519531 1227.324219 453.425781 1246.117188 C 485.539062 1254.171875 510.785156 1287.683594 545.867188 1286.21875 C 600.464844 1283.9375 631.726562 1227.167969 691.222656 1238.117188 C 745.480469 1248.101562 783.339844 1296.710938 827.585938 1301.386719 C 850.855469 1303.84375 881.996094 1293.617188 902.707031 1283.976562 C 975.800781 1249.949219 1014.398438 1283.703125 1064.539062 1327.527344 C 1118.949219 1375.082031 1154.449219 1359.335938 1210.519531 1385.839844 C 1215.800781 1388.335938 1229.960938 1391.0625 1229.878906 1398.402344 C 1229.5 1435.519531 1133.980469 1387.824219 1098.28125 1431.335938 C 1094.171875 1436.335938 1089 1444.601562 1087.25 1450.761719 C 1085.140625 1458.199219 1082.519531 1465.605469 1079.339844 1472.621094 C 1074.101562 1484.191406 1074.160156 1456.949219 1074.320312 1454.25 C 1075.589844 1432.222656 1084.390625 1409.710938 1049.839844 1417.796875 C 1035.589844 1421.132812 1007.371094 1428.097656 1001.328125 1442.117188 C 998.578125 1448.511719 994.164062 1487.351562 984.039062 1484.34375 C 958.707031 1476.824219 1007.089844 1421.304688 950.9375 1428.179688 C 936.027344 1430.007812 920.023438 1425.769531 905.398438 1428.089844 C 876.320312 1432.703125 881.171875 1490.5625 860.785156 1492.753906 C 854.667969 1493.414062 861.023438 1448.78125 852.3125 1441.125 C 842.542969 1432.53125 747.191406 1430.777344 737.21875 1440.539062 C 722.1875 1455.246094 724.523438 1489.699219 722.253906 1508.476562 C 722.09375 1509.8125 722.035156 1518.625 718.175781 1517.84375 C 700.914062 1514.355469 725.53125 1456.59375 706.738281 1451.492188 C 688.894531 1446.648438 630.34375 1447.011719 618.613281 1463.910156 C 606.347656 1481.574219 611.046875 1516.144531 597.960938 1529.960938 C 597.261719 1530.699219 593.3125 1533.21875 592.425781 1532.75 C 574.542969 1523.351562 597.273438 1474.039062 578.285156 1459.316406 C 573.761719 1455.808594 567.652344 1455.027344 562.53125 1452.894531 C 535.300781 1441.570312 534.855469 1463.398438 511.445312 1465.621094 C 502.269531 1466.492188 499.53125 1450.742188 486.753906 1459.671875 C 475.34375 1467.648438 480.828125 1489.34375 470.21875 1496.152344 C 458.882812 1503.425781 454.160156 1469.769531 450.800781 1467.480469 C 442.132812 1461.582031 389.773438 1463.878906 379.09375 1465.027344 C 374.246094 1465.550781 362.234375 1514.925781 357.78125 1510.699219 C 335.183594 1489.242188 350.847656 1473.015625 319.773438 1465.976562 C 311.691406 1464.144531 299.832031 1462.445312 291.882812 1466.480469 C 290.574219 1467.144531 290.3125 1468.839844 289.828125 1470.179688 C 282.496094 1490.515625 282.859375 1512.914062 271.902344 1533.136719 C 271.488281 1533.902344 267.523438 1541.019531 265.714844 1539.84375 C 248.210938 1528.464844 272.980469 1484.023438 254.445312 1465.730469 C 214.570312 1426.371094 179.976562 1503.941406 167.835938 1495.894531 C 156.109375 1488.121094 172.761719 1462.769531 162.433594 1457.296875 C 143.3125 1447.171875 99.535156 1458.972656 89.832031 1428.65625 C 87.675781 1421.917969 107.941406 1423.929688 111.234375 1422.972656 C 134.128906 1416.320312 70.796875 1381.738281 97.363281 1366.933594 C 130.152344 1348.660156 208.601562 1351.117188 228.039062 1347.648438 Z M 228.039062 1347.648438 " />
</clipPath>
<clipPath id="clip-34">
<path clip-rule="nonzero" d="M 89 1236 L 1219 1236 L 1219 1433 L 89 1433 Z M 89 1236 " />
</clipPath>
<clipPath id="clip-35">
<path clip-rule="evenodd" d="M 228.039062 1347.648438 C 232.675781 1346.824219 220.234375 1347.960938 213.980469 1346.132812 C 209.386719 1344.789062 206.304688 1339.449219 208.140625 1334.632812 C 216.074219 1313.808594 261.019531 1320.78125 278.125 1320.457031 C 281.523438 1320.390625 284.078125 1319.863281 287.402344 1319.015625 C 290.339844 1318.265625 293.3125 1317.746094 296.28125 1317.128906 C 298.839844 1316.59375 301.78125 1316.175781 304.179688 1315.042969 C 361.628906 1287.921875 378.519531 1227.324219 453.425781 1246.117188 C 485.539062 1254.171875 510.785156 1287.683594 545.867188 1286.21875 C 600.464844 1283.9375 631.726562 1227.167969 691.222656 1238.117188 C 745.480469 1248.101562 783.339844 1296.710938 827.585938 1301.386719 C 850.855469 1303.84375 881.996094 1293.617188 902.707031 1283.976562 C 975.800781 1249.949219 1014.398438 1283.703125 1064.539062 1327.527344 C 1118.949219 1375.082031 1154.449219 1359.335938 1210.519531 1385.839844 C 1215.800781 1388.335938 1229.960938 1391.0625 1229.878906 1398.402344 C 1229.5 1435.519531 1133.980469 1387.824219 1098.28125 1431.335938 C 1094.171875 1436.335938 1089 1444.601562 1087.25 1450.761719 C 1085.140625 1458.199219 1082.519531 1465.605469 1079.339844 1472.621094 C 1074.101562 1484.191406 1074.160156 1456.949219 1074.320312 1454.25 C 1075.589844 1432.222656 1084.390625 1409.710938 1049.839844 1417.796875 C 1035.589844 1421.132812 1007.371094 1428.097656 1001.328125 1442.117188 C 998.578125 1448.511719 994.164062 1487.351562 984.039062 1484.34375 C 958.707031 1476.824219 1007.089844 1421.304688 950.9375 1428.179688 C 936.027344 1430.007812 920.023438 1425.769531 905.398438 1428.089844 C 876.320312 1432.703125 881.171875 1490.5625 860.785156 1492.753906 C 854.667969 1493.414062 861.023438 1448.78125 852.3125 1441.125 C 842.542969 1432.53125 747.191406 1430.777344 737.21875 1440.539062 C 722.1875 1455.246094 724.523438 1489.699219 722.253906 1508.476562 C 722.09375 1509.8125 722.035156 1518.625 718.175781 1517.84375 C 700.914062 1514.355469 725.53125 1456.59375 706.738281 1451.492188 C 688.894531 1446.648438 630.34375 1447.011719 618.613281 1463.910156 C 606.347656 1481.574219 611.046875 1516.144531 597.960938 1529.960938 C 597.261719 1530.699219 593.3125 1533.21875 592.425781 1532.75 C 574.542969 1523.351562 597.273438 1474.039062 578.285156 1459.316406 C 573.761719 1455.808594 567.652344 1455.027344 562.53125 1452.894531 C 535.300781 1441.570312 534.855469 1463.398438 511.445312 1465.621094 C 502.269531 1466.492188 499.53125 1450.742188 486.753906 1459.671875 C 475.34375 1467.648438 480.828125 1489.34375 470.21875 1496.152344 C 458.882812 1503.425781 454.160156 1469.769531 450.800781 1467.480469 C 442.132812 1461.582031 389.773438 1463.878906 379.09375 1465.027344 C 374.246094 1465.550781 362.234375 1514.925781 357.78125 1510.699219 C 335.183594 1489.242188 350.847656 1473.015625 319.773438 1465.976562 C 311.691406 1464.144531 299.832031 1462.445312 291.882812 1466.480469 C 290.574219 1467.144531 290.3125 1468.839844 289.828125 1470.179688 C 282.496094 1490.515625 282.859375 1512.914062 271.902344 1533.136719 C 271.488281 1533.902344 267.523438 1541.019531 265.714844 1539.84375 C 248.210938 1528.464844 272.980469 1484.023438 254.445312 1465.730469 C 214.570312 1426.371094 179.976562 1503.941406 167.835938 1495.894531 C 156.109375 1488.121094 172.761719 1462.769531 162.433594 1457.296875 C 143.3125 1447.171875 99.535156 1458.972656 89.832031 1428.65625 C 87.675781 1421.917969 107.941406 1423.929688 111.234375 1422.972656 C 134.128906 1416.320312 70.796875 1381.738281 97.363281 1366.933594 C 130.152344 1348.660156 208.601562 1351.117188 228.039062 1347.648438 Z M 228.039062 1347.648438 " />
</clipPath>
</defs><path fill-rule="evenodd" fill="rgb(16.697693%, 27.293396%, 31.396484%)" fill-opacity="1" d="M 226.039062 1369.648438 C 230.675781 1368.824219 218.234375 1369.960938 211.980469 1368.132812 C 207.386719 1366.789062 204.304688 1361.449219 206.140625 1356.632812 C 214.074219 1335.808594 259.019531 1342.78125 276.125 1342.457031 C 279.523438 1342.390625 282.078125 1341.863281 285.402344 1341.015625 C 288.339844 1340.265625 291.3125 1339.746094 294.28125 1339.128906 C 296.839844 1338.59375 299.78125 1338.175781 302.179688 1337.042969 C 359.628906 1309.921875 376.519531 1249.324219 451.425781 1268.117188 C 483.539062 1276.171875 508.785156 1309.683594 543.867188 1308.21875 C 598.464844 1305.9375 629.726562 1249.167969 689.222656 1260.117188 C 743.480469 1270.101562 781.339844 1318.710938 825.585938 1323.386719 C 848.855469 1325.84375 879.996094 1315.617188 900.707031 1305.976562 C 973.800781 1271.949219 1012.398438 1305.703125 1062.539062 1349.527344 C 1116.949219 1397.082031 1152.449219 1381.335938 1208.519531 1407.839844 C 1213.800781 1410.335938 1227.960938 1413.0625 1227.878906 1420.402344 C 1227.5 1457.519531 1131.980469 1409.824219 1096.28125 1453.335938 C 1092.171875 1458.335938 1087 1466.601562 1085.25 1472.761719 C 1083.140625 1480.199219 1080.519531 1487.605469 1077.339844 1494.621094 C 1072.101562 1506.191406 1072.160156 1478.949219 1072.320312 1476.25 C 1073.589844 1454.222656 1082.390625 1431.710938 1047.839844 1439.796875 C 1033.589844 1443.132812 1005.371094 1450.097656 999.332031 1464.117188 C 996.578125 1470.511719 992.164062 1509.351562 982.039062 1506.34375 C 956.707031 1498.824219 1005.089844 1443.304688 948.9375 1450.179688 C 934.027344 1452.007812 918.023438 1447.769531 903.398438 1450.089844 C 874.320312 1454.703125 879.171875 1512.5625 858.785156 1514.753906 C 852.667969 1515.414062 859.023438 1470.78125 850.3125 1463.125 C 840.542969 1454.53125 745.191406 1452.777344 735.21875 1462.539062 C 720.1875 1477.246094 722.523438 1511.699219 720.253906 1530.476562 C 720.09375 1531.8125 720.035156 1540.625 716.175781 1539.84375 C 698.914062 1536.355469 723.53125 1478.59375 704.738281 1473.492188 C 686.894531 1468.648438 628.34375 1469.011719 616.613281 1485.910156 C 604.347656 1503.574219 609.046875 1538.144531 595.960938 1551.960938 C 595.261719 1552.699219 591.3125 1555.21875 590.425781 1554.75 C 572.542969 1545.351562 595.273438 1496.039062 576.285156 1481.316406 C 571.761719 1477.808594 565.652344 1477.027344 560.53125 1474.894531 C 533.300781 1463.570312 532.855469 1485.398438 509.445312 1487.621094 C 500.269531 1488.492188 497.53125 1472.742188 484.753906 1481.671875 C 473.34375 1489.648438 478.828125 1511.34375 468.21875 1518.152344 C 456.882812 1525.425781 452.160156 1491.769531 448.800781 1489.480469 C 440.132812 1483.582031 387.773438 1485.878906 377.09375 1487.027344 C 372.246094 1487.550781 360.234375 1536.925781 355.78125 1532.699219 C 333.183594 1511.242188 348.847656 1495.015625 317.773438 1487.976562 C 309.691406 1486.144531 297.832031 1484.445312 289.882812 1488.480469 C 288.574219 1489.144531 288.3125 1490.839844 287.828125 1492.179688 C 280.496094 1512.515625 280.859375 1534.914062 269.902344 1555.136719 C 269.488281 1555.902344 265.523438 1563.019531 263.714844 1561.84375 C 246.210938 1550.464844 270.980469 1506.023438 252.445312 1487.730469 C 212.570312 1448.371094 177.976562 1525.941406 165.835938 1517.894531 C 154.109375 1510.121094 170.761719 1484.769531 160.433594 1479.296875 C 141.3125 1469.171875 97.535156 1480.972656 87.832031 1450.65625 C 85.675781 1443.917969 105.941406 1445.929688 109.234375 1444.972656 C 132.128906 1438.320312 68.796875 1403.738281 95.363281 1388.933594 C 128.152344 1370.660156 206.601562 1373.117188 226.039062 1369.648438 " />
<path fill-rule="evenodd" fill="rgb(81.639099%, 93.75%, 96.09375%)" fill-opacity="1" d="M 228.039062 1347.648438 C 232.675781 1346.824219 220.234375 1347.960938 213.980469 1346.132812 C 209.386719 1344.789062 206.304688 1339.449219 208.140625 1334.632812 C 216.074219 1313.808594 261.019531 1320.78125 278.125 1320.457031 C 281.523438 1320.390625 284.078125 1319.863281 287.402344 1319.015625 C 290.339844 1318.265625 293.3125 1317.746094 296.28125 1317.128906 C 298.839844 1316.59375 301.78125 1316.175781 304.179688 1315.042969 C 361.628906 1287.921875 378.519531 1227.324219 453.425781 1246.117188 C 485.539062 1254.171875 510.785156 1287.683594 545.867188 1286.21875 C 600.464844 1283.9375 631.726562 1227.167969 691.222656 1238.117188 C 745.480469 1248.101562 783.339844 1296.710938 827.585938 1301.386719 C 850.855469 1303.84375 881.996094 1293.617188 902.707031 1283.976562 C 975.800781 1249.949219 1014.398438 1283.703125 1064.539062 1327.527344 C 1118.949219 1375.082031 1154.449219 1359.335938 1210.519531 1385.839844 C 1215.800781 1388.335938 1229.960938 1391.0625 1229.878906 1398.402344 C 1229.5 1435.519531 1133.980469 1387.824219 1098.28125 1431.335938 C 1094.171875 1436.335938 1089 1444.601562 1087.25 1450.761719 C 1085.140625 1458.199219 1082.519531 1465.605469 1079.339844 1472.621094 C 1074.101562 1484.191406 1074.160156 1456.949219 1074.320312 1454.25 C 1075.589844 1432.222656 1084.390625 1409.710938 1049.839844 1417.796875 C 1035.589844 1421.132812 1007.371094 1428.097656 1001.328125 1442.117188 C 998.578125 1448.511719 994.164062 1487.351562 984.039062 1484.34375 C 958.707031 1476.824219 1007.089844 1421.304688 950.9375 1428.179688 C 936.027344 1430.007812 920.023438 1425.769531 905.398438 1428.089844 C 876.320312 1432.703125 881.171875 1490.5625 860.785156 1492.753906 C 854.667969 1493.414062 861.023438 1448.78125 852.3125 1441.125 C 842.542969 1432.53125 747.191406 1430.777344 737.21875 1440.539062 C 722.1875 1455.246094 724.523438 1489.699219 722.253906 1508.476562 C 722.09375 1509.8125 722.035156 1518.625 718.175781 1517.84375 C 700.914062 1514.355469 725.53125 1456.59375 706.738281 1451.492188 C 688.894531 1446.648438 630.34375 1447.011719 618.613281 1463.910156 C 606.347656 1481.574219 611.046875 1516.144531 597.960938 1529.960938 C 597.261719 1530.699219 593.3125 1533.21875 592.425781 1532.75 C 574.542969 1523.351562 597.273438 1474.039062 578.285156 1459.316406 C 573.761719 1455.808594 567.652344 1455.027344 562.53125 1452.894531 C 535.300781 1441.570312 534.855469 1463.398438 511.445312 1465.621094 C 502.269531 1466.492188 499.53125 1450.742188 486.753906 1459.671875 C 475.34375 1467.648438 480.828125 1489.34375 470.21875 1496.152344 C 458.882812 1503.425781 454.160156 1469.769531 450.800781 1467.480469 C 442.132812 1461.582031 389.773438 1463.878906 379.09375 1465.027344 C 374.246094 1465.550781 362.234375 1514.925781 357.78125 1510.699219 C 335.183594 1489.242188 350.847656 1473.015625 319.773438 1465.976562 C 311.691406 1464.144531 299.832031 1462.445312 291.882812 1466.480469 C 290.574219 1467.144531 290.3125 1468.839844 289.828125 1470.179688 C 282.496094 1490.515625 282.859375 1512.914062 271.902344 1533.136719 C 271.488281 1533.902344 267.523438 1541.019531 265.714844 1539.84375 C 248.210938 1528.464844 272.980469 1484.023438 254.445312 1465.730469 C 214.570312 1426.371094 179.976562 1503.941406 167.835938 1495.894531 C 156.109375 1488.121094 172.761719 1462.769531 162.433594 1457.296875 C 143.3125 1447.171875 99.535156 1458.972656 89.832031 1428.65625 C 87.675781 1421.917969 107.941406 1423.929688 111.234375 1422.972656 C 134.128906 1416.320312 70.796875 1381.738281 97.363281 1366.933594 C 130.152344 1348.660156 208.601562 1351.117188 228.039062 1347.648438 " />
<g clip-path="url(#clip-32)">
<g clip-path="url(#clip-33)">
<path fill-rule="evenodd" fill="rgb(91.796875%, 98.4375%, 100%)" fill-opacity="1" d="M 228.039062 1317.347656 C 232.675781 1316.519531 220.234375 1317.65625 213.980469 1315.828125 C 209.386719 1314.484375 206.304688 1309.144531 208.140625 1304.328125 C 216.074219 1283.503906 261.019531 1290.476562 278.125 1290.152344 C 281.523438 1290.089844 284.078125 1289.5625 287.402344 1288.714844 C 290.339844 1287.964844 293.3125 1287.445312 296.28125 1286.824219 C 298.839844 1286.289062 301.78125 1285.871094 304.179688 1284.738281 C 361.628906 1257.617188 378.519531 1197.023438 453.425781 1215.8125 C 485.539062 1223.871094 510.785156 1257.382812 545.867188 1255.914062 C 600.464844 1253.632812 631.726562 1196.863281 691.222656 1207.8125 C 745.480469 1217.800781 783.339844 1266.40625 827.585938 1271.082031 C 850.855469 1273.542969 881.996094 1263.3125 902.707031 1253.671875 C 975.800781 1219.648438 1014.398438 1253.402344 1064.539062 1297.222656 C 1118.949219 1344.777344 1154.449219 1329.03125 1210.519531 1355.539062 C 1215.800781 1358.03125 1248.789062 1381.003906 1248.710938 1388.347656 C 1248.328125 1425.460938 1133.980469 1357.519531 1098.28125 1401.035156 C 1094.171875 1406.03125 1089 1414.300781 1087.25 1420.457031 C 1085.140625 1427.898438 1082.519531 1435.304688 1079.339844 1442.320312 C 1074.101562 1453.890625 1074.160156 1426.644531 1074.320312 1423.945312 C 1075.589844 1401.917969 1084.390625 1379.40625 1049.839844 1387.496094 C 1035.589844 1390.832031 1007.371094 1397.796875 1001.328125 1411.8125 C 998.578125 1418.207031 994.164062 1457.050781 984.039062 1454.042969 C 958.707031 1446.519531 1007.089844 1391 950.9375 1397.878906 C 936.027344 1399.703125 920.023438 1395.46875 905.398438 1397.785156 C 876.320312 1402.398438 881.171875 1460.257812 860.785156 1462.453125 C 854.667969 1463.109375 861.023438 1418.476562 852.3125 1410.820312 C 842.542969 1402.230469 747.191406 1400.476562 737.21875 1410.238281 C 722.1875 1424.945312 724.523438 1459.398438 722.253906 1478.171875 C 722.09375 1479.507812 722.035156 1488.324219 718.175781 1487.542969 C 700.914062 1484.050781 725.53125 1426.289062 706.738281 1421.1875 C 688.894531 1416.34375 630.34375 1416.710938 618.613281 1433.609375 C 606.347656 1451.273438 611.046875 1485.84375 597.960938 1499.660156 C 597.261719 1500.394531 593.3125 1502.914062 592.425781 1502.445312 C 574.542969 1493.046875 597.273438 1443.738281 578.285156 1429.015625 C 573.761719 1425.507812 567.652344 1424.722656 562.53125 1422.59375 C 535.300781 1411.269531 534.855469 1433.097656 511.445312 1435.320312 C 502.269531 1436.191406 499.53125 1420.441406 486.753906 1429.371094 C 475.34375 1437.34375 480.828125 1459.042969 470.21875 1465.851562 C 458.882812 1473.121094 454.160156 1439.464844 450.800781 1437.179688 C 442.132812 1431.277344 389.773438 1433.578125 379.09375 1434.726562 C 374.246094 1435.246094 362.234375 1484.625 357.78125 1480.394531 C 335.183594 1458.941406 350.847656 1442.710938 319.773438 1435.675781 C 311.691406 1433.84375 299.832031 1432.144531 291.882812 1436.179688 C 290.574219 1436.84375 290.3125 1438.535156 289.828125 1439.875 C 282.496094 1460.210938 282.859375 1482.613281 271.902344 1502.835938 C 271.488281 1503.597656 267.523438 1510.714844 265.714844 1509.539062 C 248.210938 1498.160156 272.980469 1453.71875 254.445312 1435.425781 C 214.570312 1396.070312 179.976562 1473.640625 167.835938 1465.59375 C 156.109375 1457.820312 173.96875 1428.886719 162.433594 1426.996094 C 140.980469 1423.476562 68.40625 1450.332031 89.671875 1420.457031 C 92.816406 1416.042969 113.804688 1424.507812 119.519531 1420.457031 C 121.574219 1419 121.683594 1410.117188 110.082031 1407.132812 C 69.714844 1396.75 70.796875 1351.4375 97.363281 1336.628906 C 130.152344 1318.355469 208.601562 1320.8125 228.039062 1317.347656 " />
</g>
</g>
<g clip-path="url(#clip-34)">
<g clip-path="url(#clip-35)">
<path fill-rule="evenodd" fill="rgb(100%, 100%, 100%)" fill-opacity="1" d="M 101.300781 1413.847656 C 119.304688 1422.308594 133.277344 1411.929688 149.921875 1411.929688 C 161.917969 1411.929688 172.925781 1399.066406 185.90625 1401.226562 C 186.113281 1401.261719 186.316406 1401.339844 186.511719 1401.429688 C 192.058594 1403.988281 190 1423.265625 198.4375 1424.753906 C 200.558594 1425.125 231.558594 1398.640625 248.171875 1400.421875 C 259.332031 1401.613281 262.355469 1424.117188 272.53125 1424.652344 C 283.578125 1425.230469 288.527344 1398.996094 299.925781 1400.421875 C 327.96875 1403.921875 334.625 1429.105469 350.464844 1432.828125 C 350.835938 1432.917969 396.398438 1412.128906 406.460938 1411.121094 C 423.988281 1409.371094 448.320312 1429.925781 453.363281 1429.296875 C 465.226562 1427.8125 475.300781 1404.621094 491.167969 1402.640625 C 502.863281 1401.179688 500.054688 1417.929688 508.855469 1417.382812 C 532.464844 1415.90625 554.003906 1401.226562 578.300781 1401.226562 C 578.769531 1401.226562 579.25 1401.144531 579.714844 1401.226562 C 586.40625 1402.441406 584.492188 1430.800781 594.976562 1429.699219 C 602.40625 1428.917969 608.410156 1412.402344 615.09375 1408.296875 C 626.214844 1401.460938 644.3125 1400.78125 657.039062 1399.109375 C 677.523438 1396.414062 688.601562 1397.417969 702.019531 1410.820312 C 702.847656 1411.644531 702.085938 1411.660156 703.4375 1411.527344 C 713.050781 1410.566406 725.914062 1400.324219 736.1875 1397.390625 C 770.921875 1387.476562 796.648438 1394.214844 830.191406 1398.402344 C 833.011719 1398.753906 849.847656 1396.238281 851.011719 1396.785156 C 855.882812 1399.074219 855.023438 1410.398438 858.390625 1411.929688 C 858.78125 1412.105469 876.601562 1386.605469 889.726562 1383.15625 C 901.621094 1380.027344 953.832031 1375.804688 963.210938 1379.320312 C 968.824219 1381.421875 972.878906 1394.335938 979.386719 1393.554688 C 990.957031 1392.167969 1004.359375 1380.859375 1016.578125 1377.804688 C 1028.761719 1374.765625 1055.160156 1365.984375 1067.328125 1369.019531 C 1072.980469 1370.433594 1072.898438 1377.679688 1080.46875 1378.308594 C 1099.558594 1379.898438 1113.398438 1373.640625 1133.738281 1377.703125 C 1137.390625 1378.433594 1214.25 1385.441406 1214.398438 1385.378906 C 1217.980469 1383.75 1218.640625 1375.675781 1218.640625 1372.757812 C 1218.640625 1313.835938 1046.660156 1263.59375 1006.878906 1247.664062 C 769.8125 1152.726562 485.203125 1137.488281 245.542969 1231.8125 C 187.578125 1254.625 119.640625 1286.914062 81.894531 1337.621094 C 64.789062 1360.597656 61.554688 1413.847656 101.300781 1413.847656 " />
</g>
</g>
</svg>