<?xml version='1.0' encoding='utf-8'?>
<svg xmlns="http://www.w3.org/2000/svg" width="2000" height="2000" viewBox="0 0 2000 2000"><defs><clipPath id="clip-12">
<path clip-rule="nonzero" d="M 1060 480 L 1879 480 L 1879 754 L 1060 754 Z M 1060 480 " />
</clipPath>
<clipPath id="clip-13">
<path clip-rule="evenodd" d="M 1067.621094 574.609375 C 1054.640625 610.039062 1061.859375 730.691406 1078.800781 743.378906 C 1079.800781 744.128906 1081.039062 742.019531 1081.621094 740.910156 C 1089.230469 726.558594 1085.679688 706.289062 1090.800781 690.960938 C 1092.511719 685.839844 1093.039062 680.480469 1093.039062 675.089844 C 1093.039062 672.121094 1091.699219 663.5 1093.039062 666.160156 C 1097.238281 674.558594 1096.210938 685.871094 1096.210938 695.070312 C 1096.210938 695.441406 1096.589844 699.878906 1096.679688 699.890625 C 1100.558594 700.28125 1107.941406 673.121094 1108.921875 674.390625 C 1117.808594 685.808594 1126.289062 706.851562 1131.511719 680.738281 C 1134.171875 667.488281 1148.589844 699.21875 1157.050781 680.738281 C 1165.5 662.261719 1166.878906 638.53125 1175.878906 620.558594 C 1177.601562 617.121094 1176.460938 628.230469 1176.460938 632.078125 C 1176.460938 642.101562 1177.410156 651.539062 1177.410156 661.578125 C 1177.410156 690 1186.011719 719.78125 1187.988281 748.199219 C 1188.871094 760.671875 1190.238281 772.359375 1192.699219 784.628906 C 1193.449219 788.359375 1191.480469 797.371094 1194.941406 795.800781 C 1203.441406 791.941406 1203.351562 671.820312 1211.179688 669.691406 C 1219.058594 667.539062 1224.230469 706.851562 1229.179688 711.179688 C 1231.128906 712.890625 1239.660156 681 1241.648438 679.679688 C 1243.671875 678.328125 1262.28125 716.199219 1272.25 717.519531 C 1276.421875 718.078125 1279.359375 708.179688 1280.128906 705.769531 C 1285.230469 689.839844 1288.160156 712.089844 1304.019531 713.53125 C 1314.230469 714.460938 1317.871094 695.71875 1324.960938 696.601562 C 1335.660156 697.941406 1356.511719 761.921875 1363.199219 769.121094 C 1363.988281 769.960938 1367.109375 774.839844 1368.261719 774.53125 C 1370.03125 774.050781 1371.738281 764.859375 1372.03125 763.480469 C 1379.050781 730.339844 1388.789062 694.539062 1392.148438 660.988281 C 1393.449219 648.039062 1397.25 635.5 1398.5 622.558594 C 1398.648438 621.058594 1398.03125 617.03125 1399.089844 618.089844 C 1403.980469 622.96875 1399.699219 674.039062 1412.390625 674.039062 C 1420.089844 674.039062 1427.738281 642.199219 1434.039062 638.421875 C 1439.96875 634.871094 1444.871094 644.410156 1448.980469 646.648438 C 1485.410156 666.5 1490.378906 697.460938 1509.460938 732.570312 C 1510.101562 733.730469 1512.96875 738.851562 1514.878906 738.558594 C 1523.808594 737.21875 1527.738281 698.53125 1542.289062 693.078125 C 1561.789062 685.769531 1576.488281 715.269531 1595.011719 716.109375 C 1607.480469 716.679688 1633.890625 692.78125 1662.199219 698.839844 C 1681.628906 702.988281 1712.960938 783.460938 1716.921875 783.460938 C 1733.539062 783.460938 1737.929688 677.910156 1763.039062 666.511719 C 1766.039062 665.148438 1775.011719 690.238281 1777.988281 692.140625 C 1780.679688 693.851562 1791.429688 672.589844 1794.808594 670.511719 C 1799.070312 667.890625 1804.371094 687.761719 1810.929688 686.730469 C 1820.441406 685.230469 1824.671875 671.921875 1832.578125 671.921875 C 1854.96875 671.921875 1861.671875 725.320312 1864.828125 726.101562 C 1865.210938 726.199219 1865.679688 720.820312 1865.769531 720.460938 C 1872.121094 695.089844 1875.660156 664.179688 1878 638.421875 C 1880.679688 609.070312 1877.800781 512.578125 1852.589844 490.691406 C 1834.019531 474.558594 1781.230469 483.238281 1760.449219 482.929688 C 1709.761719 482.171875 1651.261719 476.878906 1601.601562 489.28125 C 1562.171875 499.121094 1581.269531 560.46875 1475.339844 540.871094 C 1452.691406 536.679688 1441.128906 516.980469 1419.800781 512.199219 C 1327.5 491.5 1245.261719 509.878906 1156.691406 530.769531 C 1125.96875 538.011719 1079 543.53125 1067.621094 574.609375 Z M 1067.621094 574.609375 " />
</clipPath>
<clipPath id="clip-14">
<path clip-rule="nonzero" d="M 1060 480 L 1879 480 L 1879 675 L 1060 675 Z M 1060 480 " />
</clipPath>
<clipPath id="clip-15">
<path clip-rule="evenodd" d="M 1067.621094 574.609375 C 1054.640625 610.039062 1061.859375 730.691406 1078.800781 743.378906 C 1079.800781 744.128906 1081.039062 742.019531 1081.621094 740.910156 C 1089.230469 726.558594 1085.679688 706.289062 1090.800781 690.960938 C 1092.511719 685.839844 1093.039062 680.480469 1093.039062 675.089844 C 1093.039062 672.121094 1091.699219 663.5 1093.039062 666.160156 C 1097.238281 674.558594 1096.210938 685.871094 1096.210938 695.070312 C 1096.210938 695.441406 1096.589844 699.878906 1096.679688 699.890625 C 1100.558594 700.28125 1107.941406 673.121094 1108.921875 674.390625 C 1117.808594 685.808594 1126.289062 706.851562 1131.511719 680.738281 C 1134.171875 667.488281 1148.589844 699.21875 1157.050781 680.738281 C 1165.5 662.261719 1166.878906 638.53125 1175.878906 620.558594 C 1177.601562 617.121094 1176.460938 628.230469 1176.460938 632.078125 C 1176.460938 642.101562 1177.410156 651.539062 1177.410156 661.578125 C 1177.410156 690 1186.011719 719.78125 1187.988281 748.199219 C 1188.871094 760.671875 1190.238281 772.359375 1192.699219 784.628906 C 1193.449219 788.359375 1191.480469 797.371094 1194.941406 795.800781 C 1203.441406 791.941406 1203.351562 671.820312 1211.179688 669.691406 C 1219.058594 667.539062 1224.230469 706.851562 1229.179688 711.179688 C 1231.128906 712.890625 1239.660156 681 1241.648438 679.679688 C 1243.671875 678.328125 1262.28125 716.199219 1272.25 717.519531 C 1276.421875 718.078125 1279.359375 708.179688 1280.128906 705.769531 C 1285.230469 689.839844 1288.160156 712.089844 1304.019531 713.53125 C 1314.230469 714.460938 1317.871094 695.71875 1324.960938 696.601562 C 1335.660156 697.941406 1356.511719 761.921875 1363.199219 769.121094 C 1363.988281 769.960938 1367.109375 774.839844 1368.261719 774.53125 C 1370.03125 774.050781 1371.738281 764.859375 1372.03125 763.480469 C 1379.050781 730.339844 1388.789062 694.539062 1392.148438 660.988281 C 1393.449219 648.039062 1397.25 635.5 1398.5 622.558594 C 1398.648438 621.058594 1398.03125 617.03125 1399.089844 618.089844 C 1403.980469 622.96875 1399.699219 674.039062 1412.390625 674.039062 C 1420.089844 674.039062 1427.738281 642.199219 1434.039062 638.421875 C 1439.96875 634.871094 1444.871094 644.410156 1448.980469 646.648438 C 1485.410156 666.5 1490.378906 697.460938 1509.460938 732.570312 C 1510.101562 733.730469 1512.96875 738.851562 1514.878906 738.558594 C 1523.808594 737.21875 1527.738281 698.53125 1542.289062 693.078125 C 1561.789062 685.769531 1576.488281 715.269531 1595.011719 716.109375 C 1607.480469 716.679688 1633.890625 692.78125 1662.199219 698.839844 C 1681.628906 702.988281 1712.960938 783.460938 1716.921875 783.460938 C 1733.539062 783.460938 1737.929688 677.910156 1763.039062 666.511719 C 1766.039062 665.148438 1775.011719 690.238281 1777.988281 692.140625 C 1780.679688 693.851562 1791.429688 672.589844 1794.808594 670.511719 C 1799.070312 667.890625 1804.371094 687.761719 1810.929688 686.730469 C 1820.441406 685.230469 1824.671875 671.921875 1832.578125 671.921875 C 1854.96875 671.921875 1861.671875 725.320312 1864.828125 726.101562 C 1865.210938 726.199219 1865.679688 720.820312 1865.769531 720.460938 C 1872.121094 695.089844 1875.660156 664.179688 1878 638.421875 C 1880.679688 609.070312 1877.800781 512.578125 1852.589844 490.691406 C 1834.019531 474.558594 1781.230469 483.238281 1760.449219 482.929688 C 1709.761719 482.171875 1651.261719 476.878906 1601.601562 489.28125 C 1562.171875 499.121094 1581.269531 560.46875 1475.339844 540.871094 C 1452.691406 536.679688 1441.128906 516.980469 1419.800781 512.199219 C 1327.5 491.5 1245.261719 509.878906 1156.691406 530.769531 C 1125.96875 538.011719 1079 543.53125 1067.621094 574.609375 Z M 1067.621094 574.609375 " />
</clipPath>
</defs><path fill-rule="evenodd" fill="rgb(16.697693%, 27.293396%, 31.396484%)" fill-opacity="1" d="M 1067.621094 593.609375 C 1054.640625 629.039062 1061.859375 749.691406 1078.800781 762.378906 C 1079.800781 763.128906 1081.039062 761.019531 1081.621094 759.910156 C 1089.230469 745.558594 1085.679688 725.289062 1090.800781 709.960938 C 1092.511719 704.839844 1093.039062 699.480469 1093.039062 694.089844 C 1093.039062 691.121094 1091.699219 682.5 1093.039062 685.160156 C 1097.238281 693.558594 1096.210938 704.871094 1096.210938 714.070312 C 1096.210938 714.441406 1096.589844 718.878906 1096.679688 718.890625 C 1100.558594 719.28125 1107.941406 692.121094 1108.921875 693.390625 C 1117.808594 704.808594 1126.289062 725.851562 1131.511719 699.738281 C 1134.171875 686.488281 1148.589844 718.21875 1157.050781 699.738281 C 1165.5 681.261719 1166.878906 657.53125 1175.878906 639.558594 C 1177.601562 636.121094 1176.460938 647.230469 1176.460938 651.078125 C 1176.460938 661.101562 1177.410156 670.539062 1177.410156 680.578125 C 1177.410156 709 1186.011719 738.78125 1187.988281 767.199219 C 1188.871094 779.671875 1190.238281 791.359375 1192.699219 803.628906 C 1193.449219 807.359375 1191.480469 816.371094 1194.941406 814.800781 C 1203.441406 810.941406 1203.351562 690.820312 1211.179688 688.691406 C 1219.058594 686.539062 1224.230469 725.851562 1229.179688 730.179688 C 1231.128906 731.890625 1239.660156 700 1241.648438 698.679688 C 1243.671875 697.328125 1262.28125 735.199219 1272.25 736.519531 C 1276.421875 737.078125 1279.359375 727.179688 1280.128906 724.769531 C 1285.230469 708.839844 1288.160156 731.089844 1304.019531 732.53125 C 1314.230469 733.460938 1317.871094 714.71875 1324.960938 715.601562 C 1335.660156 716.941406 1356.511719 780.921875 1363.199219 788.121094 C 1363.988281 788.960938 1367.109375 793.839844 1368.261719 793.53125 C 1370.03125 793.050781 1371.738281 783.859375 1372.03125 782.480469 C 1379.050781 749.339844 1388.789062 713.539062 1392.148438 679.988281 C 1393.449219 667.039062 1397.25 654.5 1398.5 641.558594 C 1398.648438 640.058594 1398.03125 636.03125 1399.089844 637.089844 C 1403.980469 641.96875 1399.699219 693.039062 1412.390625 693.039062 C 1420.089844 693.039062 1427.738281 661.199219 1434.039062 657.421875 C 1439.96875 653.871094 1444.871094 663.410156 1448.980469 665.648438 C 1485.410156 685.5 1490.378906 716.460938 1509.460938 751.570312 C 1510.101562 752.730469 1512.96875 757.851562 1514.878906 757.558594 C 1523.808594 756.21875 1527.738281 717.53125 1542.289062 712.078125 C 1561.789062 704.769531 1576.488281 734.269531 1595.011719 735.109375 C 1607.480469 735.679688 1633.890625 711.78125 1662.199219 717.839844 C 1681.628906 721.988281 1712.960938 802.460938 1716.921875 802.460938 C 1733.539062 802.460938 1737.929688 696.910156 1763.039062 685.511719 C 1766.039062 684.148438 1775.011719 709.238281 1777.988281 711.140625 C 1780.679688 712.851562 1791.429688 691.589844 1794.808594 689.511719 C 1799.070312 686.890625 1804.371094 706.761719 1810.929688 705.730469 C 1820.441406 704.230469 1824.671875 690.921875 1832.578125 690.921875 C 1854.96875 690.921875 1861.671875 744.320312 1864.828125 745.101562 C 1865.210938 745.199219 1865.679688 739.820312 1865.769531 739.460938 C 1872.121094 714.089844 1875.660156 683.179688 1878 657.421875 C 1880.679688 628.070312 1877.800781 531.578125 1852.589844 509.691406 C 1834.019531 493.558594 1781.230469 502.238281 1760.449219 501.929688 C 1709.761719 501.171875 1651.261719 495.878906 1601.601562 508.28125 C 1562.171875 518.121094 1581.269531 579.46875 1475.339844 559.871094 C 1452.691406 555.679688 1441.128906 535.980469 1419.800781 531.199219 C 1327.5 510.5 1245.261719 528.878906 1156.691406 549.769531 C 1125.96875 557.011719 1079 562.53125 1067.621094 593.609375 " />
<path fill-rule="evenodd" fill="rgb(81.639099%, 93.75%, 96.09375%)" fill-opacity="1" d="M 1067.621094 574.609375 C 1054.640625 610.039062 1061.859375 730.691406 1078.800781 743.378906 C 1079.800781 744.128906 1081.039062 742.019531 1081.621094 740.910156 C 1089.230469 726.558594 1085.679688 706.289062 1090.800781 690.960938 C 1092.511719 685.839844 1093.039062 680.480469 1093.039062 675.089844 C 1093.039062 672.121094 1091.699219 663.5 1093.039062 666.160156 C 1097.238281 674.558594 1096.210938 685.871094 1096.210938 695.070312 C 1096.210938 695.441406 1096.589844 699.878906 1096.679688 699.890625 C 1100.558594 700.28125 1107.941406 673.121094 1108.921875 674.390625 C 1117.808594 685.808594 1126.289062 706.851562 1131.511719 680.738281 C 1134.171875 667.488281 1148.589844 699.21875 1157.050781 680.738281 C 1165.5 662.261719 1166.878906 638.53125 1175.878906 620.558594 C 1177.601562 617.121094 1176.460938 628.230469 1176.460938 632.078125 C 1176.460938 642.101562 1177.410156 651.539062 1177.410156 661.578125 C 1177.410156 690 1186.011719 719.78125 1187.988281 748.199219 C 1188.871094 760.671875 1190.238281 772.359375 1192.699219 784.628906 C 1193.449219 788.359375 1191.480469 797.371094 1194.941406 795.800781 C 1203.441406 791.941406 1203.351562 671.820312 1211.179688 669.691406 C 1219.058594 667.539062 1224.230469 706.851562 1229.179688 711.179688 C 1231.128906 712.890625 1239.660156 681 1241.648438 679.679688 C 1243.671875 678.328125 1262.28125 716.199219 1272.25 717.519531 C 1276.421875 718.078125 1279.359375 708.179688 1280.128906 705.769531 C 1285.230469 689.839844 1288.160156 712.089844 1304.019531 713.53125 C 1314.230469 714.460938 1317.871094 695.71875 1324.960938 696.601562 C 1335.660156 697.941406 1356.511719 761.921875 1363.199219 769.121094 C 1363.988281 769.960938 1367.109375 774.839844 1368.261719 774.53125 C 1370.03125 774.050781 1371.738281 764.859375 1372.03125 763.480469 C 1379.050781 730.339844 1388.789062 694.539062 1392.148438 660.988281 C 1393.449219 648.039062 1397.25 635.5 1398.5 622.558594 C 1398.648438 621.058594 1398.03125 617.03125 1399.089844 618.089844 C 1403.980469 622.96875 1399.699219 674.039062 1412.390625 674.039062 C 1420.089844 674.039062 1427.738281 642.199219 1434.039062 638.421875 C 1439.96875 634.871094 1444.871094 644.410156 1448.980469 646.648438 C 1485.410156 666.5 1490.378906 697.460938 1509.460938 732.570312 C 1510.101562 733.730469 1512.96875 738.851562 1514.878906 738.558594 C 1523.808594 737.21875 1527.738281 698.53125 1542.289062 693.078125 C 1561.789062 685.769531 1576.488281 715.269531 1595.011719 716.109375 C 1607.480469 716.679688 1633.890625 692.78125 1662.199219 698.839844 C 1681.628906 702.988281 1712.960938 783.460938 1716.921875 783.460938 C 1733.539062 783.460938 1737.929688 677.910156 1763.039062 666.511719 C 1766.039062 665.148438 1775.011719 690.238281 1777.988281 692.140625 C 1780.679688 693.851562 1791.429688 672.589844 1794.808594 670.511719 C 1799.070312 667.890625 1804.371094 687.761719 1810.929688 686.730469 C 1820.441406 685.230469 1824.671875 671.921875 1832.578125 671.921875 C 1854.96875 671.921875 1861.671875 725.320312 1864.828125 726.101562 C 1865.210938 726.199219 1865.679688 720.820312 1865.769531 720.460938 C 1872.121094 695.089844 1875.660156 664.179688 1878 638.421875 C 1880.679688 609.070312 1877.800781 512.578125 1852.589844 490.691406 C 1834.019531 474.558594 1781.230469 483.238281 1760.449219 482.929688 C 1709.761719 482.171875 1651.261719 476.878906 1601.601562 489.28125 C 1562.171875 499.121094 1581.269531 560.46875 1475.339844 540.871094 C 1452.691406 536.679688 1441.128906 516.980469 1419.800781 512.199219 C 1327.5 491.5 1245.261719 509.878906 1156.691406 530.769531 C 1125.96875 538.011719 1079 543.53125 1067.621094 574.609375 " />
<g clip-path="url(#clip-12)">
<g clip-path="url(#clip-13)">
<path fill-rule="evenodd" fill="rgb(91.796875%, 98.4375%, 100%)" fill-opacity="1" d="M 1071.71875 532.519531 C 1064.5 552.238281 1056.28125 598.371094 1059.769531 637.589844 C 1062.539062 668.820312 1075.390625 695.671875 1082.898438 701.289062 C 1083.898438 702.039062 1085.140625 699.929688 1085.730469 698.820312 C 1093.328125 684.46875 1089.789062 664.210938 1094.898438 648.871094 C 1096.609375 643.75 1097.140625 638.390625 1097.140625 633.011719 C 1097.140625 630.03125 1095.808594 621.410156 1097.140625 624.070312 C 1101.339844 632.46875 1100.320312 643.78125 1100.320312 652.988281 C 1100.320312 653.359375 1100.699219 657.800781 1100.789062 657.808594 C 1104.671875 658.191406 1112.039062 631.039062 1113.019531 632.300781 C 1121.921875 643.71875 1130.390625 664.769531 1135.621094 638.648438 C 1138.269531 625.398438 1152.691406 657.140625 1161.148438 638.648438 C 1169.609375 620.171875 1170.980469 596.441406 1179.980469 578.46875 C 1181.699219 575.039062 1180.570312 586.148438 1180.570312 589.988281 C 1180.570312 600.011719 1181.511719 609.449219 1181.511719 619.488281 C 1181.511719 647.910156 1190.109375 677.699219 1192.101562 706.109375 C 1192.96875 718.578125 1194.351562 730.28125 1196.800781 742.550781 C 1197.550781 746.269531 1195.578125 755.28125 1199.039062 753.710938 C 1207.539062 749.851562 1207.449219 629.730469 1215.28125 627.601562 C 1223.171875 625.449219 1228.339844 664.769531 1233.28125 669.089844 C 1235.238281 670.800781 1243.761719 638.921875 1245.75 637.589844 C 1247.769531 636.25 1266.378906 674.109375 1276.351562 675.441406 C 1280.519531 675.988281 1283.460938 666.101562 1284.230469 663.679688 C 1289.339844 647.761719 1292.261719 670 1308.121094 671.441406 C 1318.328125 672.371094 1321.980469 653.628906 1329.058594 654.511719 C 1339.761719 655.851562 1360.609375 719.828125 1367.308594 727.03125 C 1368.089844 727.878906 1371.210938 732.75 1372.371094 732.441406 C 1374.128906 731.960938 1375.839844 722.78125 1376.128906 721.390625 C 1383.148438 688.25 1392.890625 652.449219 1396.25 618.898438 C 1397.550781 605.949219 1401.351562 593.421875 1402.609375 580.46875 C 1402.75 578.980469 1402.128906 574.941406 1403.191406 576 C 1408.078125 580.878906 1403.800781 631.949219 1416.488281 631.949219 C 1424.199219 631.949219 1431.839844 600.109375 1438.140625 596.339844 C 1444.070312 592.789062 1448.96875 602.320312 1453.089844 604.558594 C 1489.519531 624.410156 1494.488281 655.371094 1513.570312 690.480469 C 1514.199219 691.648438 1517.070312 696.761719 1518.980469 696.46875 C 1527.910156 695.140625 1531.839844 656.441406 1546.398438 650.988281 C 1565.898438 643.691406 1580.589844 673.191406 1599.109375 674.03125 C 1611.578125 674.589844 1637.988281 650.691406 1666.300781 656.75 C 1685.738281 660.910156 1717.058594 741.371094 1721.019531 741.371094 C 1737.648438 741.371094 1742.039062 635.828125 1767.140625 624.429688 C 1770.140625 623.070312 1779.109375 648.160156 1782.089844 650.050781 C 1784.78125 651.761719 1795.53125 630.511719 1798.910156 628.421875 C 1803.171875 625.808594 1808.480469 645.679688 1815.039062 644.640625 C 1824.550781 643.140625 1828.769531 629.828125 1836.691406 629.828125 C 1859.070312 629.828125 1865.78125 683.230469 1868.929688 684.019531 C 1869.320312 684.109375 1869.78125 678.730469 1869.871094 678.371094 C 1876.21875 653 1879.761719 622.089844 1882.109375 596.339844 C 1884.78125 566.988281 1881.898438 470.5 1856.691406 448.601562 C 1838.121094 432.46875 1785.339844 441.148438 1764.558594 440.839844 C 1713.871094 440.089844 1655.359375 434.789062 1605.699219 447.191406 C 1566.269531 457.039062 1585.371094 518.378906 1479.441406 498.789062 C 1456.789062 494.601562 1445.230469 474.890625 1423.910156 470.109375 C 1331.609375 449.410156 1249.359375 467.789062 1160.800781 488.679688 C 1130.078125 495.921875 1083.109375 501.441406 1071.71875 532.519531 " />
</g>
</g>
<g clip-path="url(#clip-14)">
<g clip-path="url(#clip-15)">
<path fill-rule="evenodd" fill="rgb(100%, 100%, 100%)" fill-opacity="1" d="M 1038.800781 611.289062 C 1044.660156 623.808594 1063.929688 608.710938 1076.78125 627.960938 C 1077.011719 628.308594 1077.738281 630.429688 1078.390625 630.21875 C 1089.910156 626.589844 1084.601562 597.019531 1094.308594 594.941406 C 1106.03125 592.429688 1102.910156 624.671875 1111.261719 627.058594 C 1114.820312 628.070312 1116.738281 618.171875 1117.210938 615.488281 C 1117.460938 614.089844 1116.828125 610.378906 1117.921875 611.289062 C 1119.808594 612.871094 1123.941406 632.078125 1128.078125 631.128906 C 1133.171875 629.949219 1132.210938 616.578125 1140.109375 618.269531 C 1143.761719 619.050781 1145.179688 627.109375 1149.039062 625.828125 C 1156.449219 623.359375 1162.429688 565.679688 1187.328125 570.058594 C 1201.898438 572.628906 1193.449219 620.890625 1200.660156 628.988281 C 1201.160156 629.558594 1205.648438 623.628906 1206.03125 622.859375 C 1208.671875 617.390625 1214.941406 605.238281 1221.808594 603.988281 C 1226.460938 603.140625 1228.351562 633.578125 1233.269531 633.578125 C 1236.988281 633.578125 1243.089844 609.351562 1249.890625 612.070312 C 1256.398438 614.671875 1264.519531 650.300781 1267.621094 650.960938 C 1279.101562 653.421875 1282.089844 639.089844 1290.839844 636.359375 C 1296.128906 634.710938 1298.261719 651.101562 1305.199219 649.800781 C 1317.988281 647.410156 1320.890625 630.921875 1333.539062 626.929688 C 1340.890625 624.609375 1348.089844 634.328125 1351.390625 639.269531 C 1352.050781 640.261719 1352.578125 643.378906 1354.109375 641.71875 C 1360.371094 634.96875 1360.769531 618.71875 1363.421875 610.320312 C 1366.058594 601.980469 1389.921875 557.011719 1397.910156 553.328125 C 1412.960938 546.390625 1413.261719 591.769531 1417.640625 595.648438 C 1418.789062 596.679688 1423.699219 589.328125 1424.558594 588.480469 C 1430.28125 582.761719 1443.039062 571.980469 1451.210938 570.449219 C 1463.441406 568.160156 1494.699219 635.78125 1506.070312 637.519531 C 1526.628906 640.691406 1542.820312 616.449219 1562.089844 614.839844 C 1584.660156 612.96875 1587.988281 645.078125 1610.800781 648.191406 C 1631.058594 650.941406 1645.898438 624.390625 1666.761719 626.410156 C 1688.058594 628.46875 1697.058594 660.449219 1708.941406 674.289062 C 1709.050781 674.421875 1709.171875 674.671875 1709.328125 674.609375 C 1713.710938 672.96875 1715.199219 661.039062 1718.710938 657.808594 C 1736.511719 641.488281 1752.300781 618.210938 1773.121094 605.21875 C 1779.941406 600.960938 1782.429688 623.679688 1785.019531 625.121094 C 1789.441406 627.570312 1787.839844 610.070312 1801.449219 607.671875 C 1814.308594 605.410156 1809.988281 620.050781 1816.980469 624.410156 C 1817.871094 624.960938 1820.101562 621.449219 1820.28125 621.109375 C 1823.648438 614.691406 1831.269531 600.398438 1841.109375 606.441406 C 1850.089844 611.96875 1849.578125 637.890625 1858.121094 639.589844 C 1862.371094 640.441406 1868.898438 620.238281 1870.351562 616.910156 C 1882.199219 589.550781 1899 569.078125 1899 537.238281 C 1899 522.058594 1897.820312 504.621094 1887.621094 492.328125 C 1853.699219 451.5 1756.371094 442.988281 1707.519531 438.828125 C 1639.308594 433.019531 1575.621094 451.03125 1509.238281 461.699219 C 1458.050781 469.941406 1404.828125 463.960938 1353.269531 464.289062 C 1289.128906 464.691406 1228.539062 474.921875 1166.5 490.328125 C 1123.589844 500.988281 1055.179688 509.398438 1034.308594 537.238281 C 1017.839844 559.199219 1031.71875 596.171875 1038.800781 611.289062 " />
</g>
</g>
</svg>