<?xml version='1.0' encoding='utf-8'?>
<svg xmlns="http://www.w3.org/2000/svg" width="2000" height="2000" viewBox="0 0 2000 2000"><defs><clipPath id="clip-8">
<path clip-rule="nonzero" d="M 1062 855 L 1716 855 L 1716 1042 L 1062 1042 Z M 1062 855 " />
</clipPath>
<clipPath id="clip-9">
<path clip-rule="evenodd" d="M 1095.488281 886.929688 C 1083.621094 896.179688 1052.390625 905.03125 1066.121094 921.25 C 1070.238281 926.101562 1074.371094 923.011719 1078.550781 925.101562 C 1078.730469 925.191406 1078.738281 925.46875 1078.738281 925.660156 C 1078.738281 933.328125 1072.230469 939.109375 1072.621094 947.199219 C 1072.898438 953.089844 1088.558594 970.480469 1092.289062 989.128906 C 1096.121094 1008.246094 1100.949219 1067.898438 1112.058594 1064.726562 C 1125.21875 1060.972656 1124.648438 957.03125 1136.058594 952.648438 C 1143.421875 949.820312 1151.96875 974.570312 1161.011719 973.898438 C 1170.5 973.199219 1174.429688 961.859375 1182.660156 958.671875 C 1189.21875 956.121094 1191.710938 965.46875 1196.589844 967.511719 C 1197.058594 967.699219 1197.589844 967.730469 1198.101562 967.789062 C 1207.519531 968.828125 1214.238281 956.96875 1222.480469 956.96875 C 1226.058594 956.96875 1232.730469 966.199219 1238.578125 967.039062 C 1244.5 967.878906 1264.371094 955.859375 1267.570312 957.910156 C 1277.21875 964.109375 1289.578125 1034.027344 1295.339844 1048.273438 C 1295.828125 1049.488281 1299.660156 1063.53125 1301.648438 1062.472656 C 1323.851562 1050.644531 1310.070312 961.398438 1328.191406 959.140625 C 1333.640625 958.460938 1341.609375 970.128906 1348.238281 971.078125 C 1360.320312 972.800781 1365.660156 962.738281 1376.300781 961.488281 C 1377.640625 961.328125 1379.171875 960.941406 1380.53125 961.300781 C 1391.601562 964.210938 1393.75 977.621094 1407.078125 978.320312 C 1424.929688 979.261719 1438.398438 963.691406 1455.179688 961.300781 C 1475.308594 958.429688 1494.769531 976.691406 1516.371094 975.03125 C 1540.441406 973.179688 1548.640625 956.828125 1568.050781 950.769531 C 1568.300781 950.691406 1568.539062 950.578125 1568.800781 950.578125 C 1577.78125 950.578125 1584.289062 956.5 1593.28125 957.351562 C 1605.789062 958.539062 1617.859375 953.871094 1629.898438 953.871094 C 1636.148438 953.871094 1640.589844 963.449219 1646.648438 965.339844 C 1652.640625 967.210938 1659.261719 956.128906 1664.539062 959.511719 C 1676.25 967.039062 1679.058594 998.808594 1686.660156 1011.039062 C 1691.371094 1018.613281 1704.390625 1035.765625 1707.460938 1018.46875 C 1712.988281 987.371094 1725.511719 892.21875 1698.328125 868.871094 C 1660.148438 836.078125 1624.851562 875.570312 1586.410156 876.578125 C 1546.289062 877.640625 1512.898438 855.058594 1473.628906 856.371094 C 1459.050781 856.851562 1446.289062 868.550781 1431.929688 870.941406 C 1395.078125 877.078125 1357.460938 879.140625 1320.191406 879.871094 C 1289.359375 880.480469 1260.519531 861.058594 1229.640625 859 C 1196.671875 856.808594 1171.871094 873.261719 1137.761719 865.390625 C 1127.191406 862.960938 1107.429688 877.621094 1095.488281 886.929688 Z M 1095.488281 886.929688 " />
</clipPath>
<clipPath id="clip-10">
<path clip-rule="nonzero" d="M 1062 855 L 1716 855 L 1716 950 L 1062 950 Z M 1062 855 " />
</clipPath>
<clipPath id="clip-11">
<path clip-rule="evenodd" d="M 1095.488281 886.929688 C 1083.621094 896.179688 1052.390625 905.03125 1066.121094 921.25 C 1070.238281 926.101562 1074.371094 923.011719 1078.550781 925.101562 C 1078.730469 925.191406 1078.738281 925.46875 1078.738281 925.660156 C 1078.738281 933.328125 1072.230469 939.109375 1072.621094 947.199219 C 1072.898438 953.089844 1088.558594 970.480469 1092.289062 989.128906 C 1096.121094 1008.246094 1100.949219 1067.898438 1112.058594 1064.726562 C 1125.21875 1060.972656 1124.648438 957.03125 1136.058594 952.648438 C 1143.421875 949.820312 1151.96875 974.570312 1161.011719 973.898438 C 1170.5 973.199219 1174.429688 961.859375 1182.660156 958.671875 C 1189.21875 956.121094 1191.710938 965.46875 1196.589844 967.511719 C 1197.058594 967.699219 1197.589844 967.730469 1198.101562 967.789062 C 1207.519531 968.828125 1214.238281 956.96875 1222.480469 956.96875 C 1226.058594 956.96875 1232.730469 966.199219 1238.578125 967.039062 C 1244.5 967.878906 1264.371094 955.859375 1267.570312 957.910156 C 1277.21875 964.109375 1289.578125 1034.027344 1295.339844 1048.273438 C 1295.828125 1049.488281 1299.660156 1063.53125 1301.648438 1062.472656 C 1323.851562 1050.644531 1310.070312 961.398438 1328.191406 959.140625 C 1333.640625 958.460938 1341.609375 970.128906 1348.238281 971.078125 C 1360.320312 972.800781 1365.660156 962.738281 1376.300781 961.488281 C 1377.640625 961.328125 1379.171875 960.941406 1380.53125 961.300781 C 1391.601562 964.210938 1393.75 977.621094 1407.078125 978.320312 C 1424.929688 979.261719 1438.398438 963.691406 1455.179688 961.300781 C 1475.308594 958.429688 1494.769531 976.691406 1516.371094 975.03125 C 1540.441406 973.179688 1548.640625 956.828125 1568.050781 950.769531 C 1568.300781 950.691406 1568.539062 950.578125 1568.800781 950.578125 C 1577.78125 950.578125 1584.289062 956.5 1593.28125 957.351562 C 1605.789062 958.539062 1617.859375 953.871094 1629.898438 953.871094 C 1636.148438 953.871094 1640.589844 963.449219 1646.648438 965.339844 C 1652.640625 967.210938 1659.261719 956.128906 1664.539062 959.511719 C 1676.25 967.039062 1679.058594 998.808594 1686.660156 1011.039062 C 1691.371094 1018.613281 1704.390625 1035.765625 1707.460938 1018.46875 C 1712.988281 987.371094 1725.511719 892.21875 1698.328125 868.871094 C 1660.148438 836.078125 1624.851562 875.570312 1586.410156 876.578125 C 1546.289062 877.640625 1512.898438 855.058594 1473.628906 856.371094 C 1459.050781 856.851562 1446.289062 868.550781 1431.929688 870.941406 C 1395.078125 877.078125 1357.460938 879.140625 1320.191406 879.871094 C 1289.359375 880.480469 1260.519531 861.058594 1229.640625 859 C 1196.671875 856.808594 1171.871094 873.261719 1137.761719 865.390625 C 1127.191406 862.960938 1107.429688 877.621094 1095.488281 886.929688 Z M 1095.488281 886.929688 " />
</clipPath>
</defs><path fill-rule="evenodd" fill="rgb(16.697693%, 27.293396%, 31.396484%)" fill-opacity="1" d="M 1095.488281 903.929688 C 1083.621094 913.179688 1052.390625 922.03125 1066.121094 938.25 C 1070.238281 943.101562 1074.371094 940.011719 1078.550781 942.101562 C 1078.730469 942.191406 1078.738281 942.46875 1078.738281 942.660156 C 1078.738281 950.328125 1072.230469 956.109375 1072.621094 964.199219 C 1072.898438 970.089844 1088.558594 987.480469 1092.289062 1006.132812 C 1096.121094 1025.246094 1100.949219 1084.898438 1112.058594 1081.726562 C 1125.21875 1077.972656 1124.648438 974.03125 1136.058594 969.648438 C 1143.421875 966.820312 1151.96875 991.570312 1161.011719 990.898438 C 1170.5 990.199219 1174.429688 978.859375 1182.660156 975.671875 C 1189.21875 973.121094 1191.710938 982.46875 1196.589844 984.511719 C 1197.058594 984.699219 1197.589844 984.730469 1198.101562 984.789062 C 1207.519531 985.828125 1214.238281 973.96875 1222.480469 973.96875 C 1226.058594 973.96875 1232.730469 983.199219 1238.578125 984.039062 C 1244.5 984.878906 1264.371094 972.859375 1267.570312 974.910156 C 1277.21875 981.109375 1289.578125 1051.027344 1295.339844 1065.273438 C 1295.828125 1066.488281 1299.660156 1080.53125 1301.648438 1079.472656 C 1323.851562 1067.644531 1310.070312 978.398438 1328.191406 976.140625 C 1333.640625 975.460938 1341.609375 987.128906 1348.238281 988.078125 C 1360.320312 989.800781 1365.660156 979.738281 1376.300781 978.488281 C 1377.640625 978.328125 1379.171875 977.941406 1380.53125 978.300781 C 1391.601562 981.210938 1393.75 994.621094 1407.078125 995.320312 C 1424.929688 996.261719 1438.398438 980.691406 1455.179688 978.300781 C 1475.308594 975.429688 1494.769531 993.691406 1516.371094 992.03125 C 1540.441406 990.179688 1548.640625 973.828125 1568.050781 967.769531 C 1568.300781 967.691406 1568.539062 967.578125 1568.800781 967.578125 C 1577.78125 967.578125 1584.289062 973.5 1593.28125 974.351562 C 1605.789062 975.539062 1617.859375 970.871094 1629.898438 970.871094 C 1636.148438 970.871094 1640.589844 980.449219 1646.648438 982.339844 C 1652.640625 984.210938 1659.261719 973.128906 1664.539062 976.511719 C 1676.25 984.03125 1679.058594 1015.808594 1686.660156 1028.039062 C 1691.371094 1035.613281 1704.390625 1052.765625 1707.460938 1035.46875 C 1712.988281 1004.367188 1725.511719 909.21875 1698.328125 885.871094 C 1660.148438 853.078125 1624.851562 892.570312 1586.410156 893.578125 C 1546.289062 894.640625 1512.898438 872.058594 1473.628906 873.371094 C 1459.050781 873.851562 1446.289062 885.550781 1431.929688 887.941406 C 1395.078125 894.078125 1357.460938 896.140625 1320.191406 896.871094 C 1289.359375 897.480469 1260.519531 878.058594 1229.640625 876 C 1196.671875 873.808594 1171.871094 890.261719 1137.761719 882.390625 C 1127.191406 879.960938 1107.429688 894.621094 1095.488281 903.929688 " />
<path fill-rule="evenodd" fill="rgb(81.639099%, 93.75%, 96.09375%)" fill-opacity="1" d="M 1095.488281 886.929688 C 1083.621094 896.179688 1052.390625 905.03125 1066.121094 921.25 C 1070.238281 926.101562 1074.371094 923.011719 1078.550781 925.101562 C 1078.730469 925.191406 1078.738281 925.46875 1078.738281 925.660156 C 1078.738281 933.328125 1072.230469 939.109375 1072.621094 947.199219 C 1072.898438 953.089844 1088.558594 970.480469 1092.289062 989.128906 C 1096.121094 1008.246094 1100.949219 1067.898438 1112.058594 1064.726562 C 1125.21875 1060.972656 1124.648438 957.03125 1136.058594 952.648438 C 1143.421875 949.820312 1151.96875 974.570312 1161.011719 973.898438 C 1170.5 973.199219 1174.429688 961.859375 1182.660156 958.671875 C 1189.21875 956.121094 1191.710938 965.46875 1196.589844 967.511719 C 1197.058594 967.699219 1197.589844 967.730469 1198.101562 967.789062 C 1207.519531 968.828125 1214.238281 956.96875 1222.480469 956.96875 C 1226.058594 956.96875 1232.730469 966.199219 1238.578125 967.039062 C 1244.5 967.878906 1264.371094 955.859375 1267.570312 957.910156 C 1277.21875 964.109375 1289.578125 1034.027344 1295.339844 1048.273438 C 1295.828125 1049.488281 1299.660156 1063.53125 1301.648438 1062.472656 C 1323.851562 1050.644531 1310.070312 961.398438 1328.191406 959.140625 C 1333.640625 958.460938 1341.609375 970.128906 1348.238281 971.078125 C 1360.320312 972.800781 1365.660156 962.738281 1376.300781 961.488281 C 1377.640625 961.328125 1379.171875 960.941406 1380.53125 961.300781 C 1391.601562 964.210938 1393.75 977.621094 1407.078125 978.320312 C 1424.929688 979.261719 1438.398438 963.691406 1455.179688 961.300781 C 1475.308594 958.429688 1494.769531 976.691406 1516.371094 975.03125 C 1540.441406 973.179688 1548.640625 956.828125 1568.050781 950.769531 C 1568.300781 950.691406 1568.539062 950.578125 1568.800781 950.578125 C 1577.78125 950.578125 1584.289062 956.5 1593.28125 957.351562 C 1605.789062 958.539062 1617.859375 953.871094 1629.898438 953.871094 C 1636.148438 953.871094 1640.589844 963.449219 1646.648438 965.339844 C 1652.640625 967.210938 1659.261719 956.128906 1664.539062 959.511719 C 1676.25 967.039062 1679.058594 998.808594 1686.660156 1011.039062 C 1691.371094 1018.613281 1704.390625 1035.765625 1707.460938 1018.46875 C 1712.988281 987.371094 1725.511719 892.21875 1698.328125 868.871094 C 1660.148438 836.078125 1624.851562 875.570312 1586.410156 876.578125 C 1546.289062 877.640625 1512.898438 855.058594 1473.628906 856.371094 C 1459.050781 856.851562 1446.289062 868.550781 1431.929688 870.941406 C 1395.078125 877.078125 1357.460938 879.140625 1320.191406 879.871094 C 1289.359375 880.480469 1260.519531 861.058594 1229.640625 859 C 1196.671875 856.808594 1171.871094 873.261719 1137.761719 865.390625 C 1127.191406 862.960938 1107.429688 877.621094 1095.488281 886.929688 " />
<g clip-path="url(#clip-8)">
<g clip-path="url(#clip-9)">
<path fill-rule="evenodd" fill="rgb(91.796875%, 98.4375%, 100%)" fill-opacity="1" d="M 1095.488281 863.289062 C 1083.621094 872.539062 1052.390625 881.390625 1066.121094 897.609375 C 1070.238281 902.460938 1074.371094 899.371094 1078.550781 901.460938 C 1078.730469 901.550781 1078.738281 901.828125 1078.738281 902.03125 C 1078.738281 909.691406 1072.230469 915.46875 1072.621094 923.558594 C 1072.898438 929.449219 1088.558594 946.839844 1092.289062 965.488281 C 1096.121094 984.609375 1100.949219 1044.257812 1112.058594 1041.089844 C 1125.21875 1037.335938 1124.648438 933.390625 1136.058594 929.011719 C 1143.421875 926.191406 1151.96875 950.929688 1161.011719 950.261719 C 1170.5 949.558594 1174.429688 938.230469 1182.660156 935.03125 C 1189.21875 932.480469 1191.710938 941.828125 1196.589844 943.871094 C 1197.058594 944.058594 1197.589844 944.089844 1198.101562 944.148438 C 1207.519531 945.191406 1214.238281 933.339844 1222.480469 933.339844 C 1226.058594 933.339844 1232.730469 942.558594 1238.578125 943.398438 C 1244.5 944.238281 1264.371094 932.21875 1267.570312 934.28125 C 1277.21875 940.46875 1289.578125 1010.386719 1295.339844 1024.636719 C 1295.828125 1025.851562 1299.660156 1039.894531 1301.648438 1038.832031 C 1323.851562 1027.003906 1310.070312 937.761719 1328.191406 935.5 C 1333.640625 934.820312 1341.609375 946.488281 1348.238281 947.441406 C 1360.320312 949.160156 1365.660156 939.101562 1376.300781 937.851562 C 1377.640625 937.691406 1379.171875 937.300781 1380.53125 937.660156 C 1391.601562 940.570312 1393.75 953.980469 1407.078125 954.679688 C 1424.929688 955.621094 1438.398438 940.058594 1455.179688 937.660156 C 1475.308594 934.789062 1494.769531 953.050781 1516.371094 951.390625 C 1540.441406 949.539062 1548.640625 933.191406 1568.050781 927.128906 C 1568.300781 927.050781 1568.539062 926.941406 1568.800781 926.941406 C 1577.78125 926.941406 1584.289062 932.859375 1593.28125 933.710938 C 1605.789062 934.898438 1617.859375 930.230469 1629.898438 930.230469 C 1636.148438 930.230469 1640.589844 939.808594 1646.648438 941.699219 C 1652.640625 943.570312 1659.261719 932.488281 1664.539062 935.871094 C 1676.25 943.398438 1679.058594 975.171875 1686.660156 987.398438 C 1691.371094 994.96875 1704.390625 1012.125 1707.460938 994.828125 C 1712.988281 963.730469 1725.511719 868.578125 1698.328125 845.230469 C 1660.148438 812.441406 1624.851562 851.929688 1586.410156 852.941406 C 1546.289062 854 1512.898438 831.421875 1473.628906 832.730469 C 1459.050781 833.210938 1446.289062 844.910156 1431.929688 847.300781 C 1395.078125 853.441406 1357.460938 855.511719 1320.191406 856.230469 C 1289.359375 856.839844 1260.519531 837.421875 1229.640625 835.359375 C 1196.671875 833.171875 1171.871094 849.621094 1137.761719 841.761719 C 1127.191406 839.320312 1107.429688 853.980469 1095.488281 863.289062 " />
</g>
</g>
<g clip-path="url(#clip-10)">
<g clip-path="url(#clip-11)">
<path fill-rule="evenodd" fill="rgb(100%, 100%, 100%)" fill-opacity="1" d="M 1055.640625 918.820312 C 1063.421875 932.699219 1077.050781 917.621094 1087.660156 926.890625 C 1091.578125 930.320312 1104.671875 952.761719 1110.058594 948.941406 C 1120.941406 941.238281 1113.488281 918 1124.699219 912.03125 C 1133.328125 907.429688 1150.808594 932.289062 1159.140625 931.011719 C 1166.320312 929.910156 1168.261719 920.679688 1175.558594 919.058594 C 1175.800781 919.011719 1176.039062 918.988281 1176.289062 918.980469 C 1185.359375 918.441406 1191.210938 927.558594 1197.46875 926.25 C 1203.898438 924.898438 1215.441406 913.429688 1221.011719 914.050781 C 1229.429688 914.988281 1229.679688 926.269531 1238.710938 925.839844 C 1247.089844 925.449219 1259.769531 915.789062 1266.53125 916.800781 C 1280.480469 918.890625 1282 948.210938 1289.660156 947.410156 C 1308.589844 945.421875 1309 922.058594 1325.808594 917.121094 C 1327.621094 916.589844 1328.769531 917.519531 1330.089844 918.570312 C 1350.960938 935.25 1354.289062 915.320312 1380.148438 920.761719 C 1388.578125 922.53125 1388.488281 940.148438 1400.441406 938.441406 C 1422.910156 935.238281 1443.308594 921.871094 1465.621094 920.351562 C 1480.390625 919.351562 1490.171875 933.570312 1505.808594 930.449219 C 1527.699219 926.070312 1551.769531 909.449219 1573.570312 909.449219 C 1584.140625 909.449219 1588.179688 917.738281 1597.910156 918.570312 C 1605.921875 919.261719 1620.609375 910.191406 1626.140625 912.03125 C 1631.359375 913.769531 1632.699219 923.089844 1638.589844 923.421875 C 1649.25 924.011719 1655.058594 913.308594 1665.921875 916.230469 C 1674.359375 918.5 1683.820312 947.210938 1689.53125 946.121094 C 1716.398438 941.011719 1735.761719 898.851562 1732.800781 874.640625 C 1725.699219 816.640625 1656.320312 815.601562 1610.769531 812.851562 C 1523.269531 807.550781 1433.679688 820.289062 1346.101562 823.511719 C 1288.601562 825.621094 1231.691406 816.078125 1174.351562 825.53125 C 1133.789062 832.210938 1068.03125 841.691406 1037.039062 873.589844 C 1023.789062 887.21875 1049.429688 937.421875 1055.640625 918.820312 " />
</g>
</g>
</svg>