<?xml version='1.0' encoding='utf-8'?>
<svg xmlns="http://www.w3.org/2000/svg" width="2000" height="2000" viewBox="0 0 2000 2000"><defs><clipPath id="clip-20">
<path clip-rule="nonzero" d="M 113 832 L 797 832 L 797 1132 L 113 1132 Z M 113 832 " />
</clipPath>
<clipPath id="clip-21">
<path clip-rule="evenodd" d="M 170.648438 952.921875 C 174.695312 947.371094 136.773438 950.558594 140.710938 936.789062 C 145.8125 918.949219 178.363281 934.691406 188.15625 923.128906 C 197.042969 912.640625 173.398438 898.609375 184.765625 891.308594 C 211.558594 874.109375 257.765625 893.800781 287.902344 886.800781 C 316.191406 880.230469 332.679688 850.039062 360.085938 840.089844 C 421.859375 817.648438 420 884.648438 473.046875 892.21875 C 519.351562 898.820312 530.9375 835.441406 578.101562 832.300781 C 609.734375 830.199219 626.050781 879.730469 649.265625 895.601562 C 687.277344 921.578125 798.0625 884.988281 796.117188 958.789062 C 795 1001.144531 727.066406 961.421875 707.214844 967.25 C 683.898438 974.101562 683.953125 1015.5 658.304688 1016.78125 C 630.457031 1018.171875 642.019531 995.058594 624.867188 988.011719 C 616.1875 984.441406 597.292969 1016.125 581.378906 1017.570312 C 563.683594 1019.179688 557.15625 1001.175781 543.871094 999.96875 C 529.265625 998.640625 523.175781 1018.042969 510.550781 1021.070312 C 502.753906 1022.9375 484.84375 1010.753906 482.195312 1012.832031 C 463.351562 1027.621094 467.523438 1106.707031 458.023438 1108.0625 C 445.46875 1109.851562 432.722656 1023.769531 430.570312 1022.875 C 428.160156 1021.871094 426.75 1024.59375 425.714844 1026.148438 C 418.230469 1037.359375 427.898438 1080.53125 406.058594 1080.53125 C 381.085938 1080.53125 400.253906 1008.546875 366.183594 1021.632812 C 350.886719 1027.511719 362.316406 1073.484375 347.769531 1075.90625 C 335.722656 1077.910156 332.023438 1027.332031 320.097656 1036.863281 C 308.363281 1046.242188 322.707031 1162.449219 298.066406 1165.039062 C 275.875 1167.375 295.285156 1045.609375 272.992188 1027.386719 C 254.710938 1012.449219 254.96875 1071.210938 244.296875 1073.875 C 232.941406 1076.710938 239.621094 1013.738281 210.746094 1030.433594 C 196.605469 1038.613281 201.96875 1103.355469 175.390625 1097.230469 C 159.820312 1093.640625 174.546875 1040.664062 163.417969 1042.054688 C 160.550781 1042.414062 158.925781 1046.667969 158.445312 1049.050781 C 151.234375 1085.078125 151.808594 1121.351562 140.710938 1157.367188 C 140.542969 1157.914062 135.328125 1174.226562 133.820312 1173.390625 C 118.09375 1164.660156 129.789062 1059.960938 138.90625 1038.105469 C 147.941406 1016.445312 100.613281 996.910156 116.425781 970.070312 C 129.519531 947.828125 166.597656 958.46875 170.648438 952.921875 Z M 170.648438 952.921875 " />
</clipPath>
<clipPath id="clip-22">
<path clip-rule="nonzero" d="M 113 832 L 793 832 L 793 1006 L 113 1006 Z M 113 832 " />
</clipPath>
<clipPath id="clip-23">
<path clip-rule="evenodd" d="M 170.648438 952.921875 C 174.695312 947.371094 136.773438 950.558594 140.710938 936.789062 C 145.8125 918.949219 178.363281 934.691406 188.15625 923.128906 C 197.042969 912.640625 173.398438 898.609375 184.765625 891.308594 C 211.558594 874.109375 257.765625 893.800781 287.902344 886.800781 C 316.191406 880.230469 332.679688 850.039062 360.085938 840.089844 C 421.859375 817.648438 420 884.648438 473.046875 892.21875 C 519.351562 898.820312 530.9375 835.441406 578.101562 832.300781 C 609.734375 830.199219 626.050781 879.730469 649.265625 895.601562 C 687.277344 921.578125 798.0625 884.988281 796.117188 958.789062 C 795 1001.144531 727.066406 961.421875 707.214844 967.25 C 683.898438 974.101562 683.953125 1015.5 658.304688 1016.78125 C 630.457031 1018.171875 642.019531 995.058594 624.867188 988.011719 C 616.1875 984.441406 597.292969 1016.125 581.378906 1017.570312 C 563.683594 1019.179688 557.15625 1001.175781 543.871094 999.96875 C 529.265625 998.640625 523.175781 1018.042969 510.550781 1021.070312 C 502.753906 1022.9375 484.84375 1010.753906 482.195312 1012.832031 C 463.351562 1027.621094 467.523438 1106.707031 458.023438 1108.0625 C 445.46875 1109.851562 432.722656 1023.769531 430.570312 1022.875 C 428.160156 1021.871094 426.75 1024.59375 425.714844 1026.148438 C 418.230469 1037.359375 427.898438 1080.53125 406.058594 1080.53125 C 381.085938 1080.53125 400.253906 1008.546875 366.183594 1021.632812 C 350.886719 1027.511719 362.316406 1073.484375 347.769531 1075.90625 C 335.722656 1077.910156 332.023438 1027.332031 320.097656 1036.863281 C 308.363281 1046.242188 322.707031 1162.449219 298.066406 1165.039062 C 275.875 1167.375 295.285156 1045.609375 272.992188 1027.386719 C 254.710938 1012.449219 254.96875 1071.210938 244.296875 1073.875 C 232.941406 1076.710938 239.621094 1013.738281 210.746094 1030.433594 C 196.605469 1038.613281 201.96875 1103.355469 175.390625 1097.230469 C 159.820312 1093.640625 174.546875 1040.664062 163.417969 1042.054688 C 160.550781 1042.414062 158.925781 1046.667969 158.445312 1049.050781 C 151.234375 1085.078125 151.808594 1121.351562 140.710938 1157.367188 C 140.542969 1157.914062 135.328125 1174.226562 133.820312 1173.390625 C 118.09375 1164.660156 129.789062 1059.960938 138.90625 1038.105469 C 147.941406 1016.445312 100.613281 996.910156 116.425781 970.070312 C 129.519531 947.828125 166.597656 958.46875 170.648438 952.921875 Z M 170.648438 952.921875 " />
</clipPath>
</defs><path fill-rule="evenodd" fill="rgb(16.697693%, 27.293396%, 31.396484%)" fill-opacity="1" d="M 170.648438 969.921875 C 174.695312 964.371094 136.773438 967.558594 140.710938 953.789062 C 145.8125 935.949219 178.363281 951.691406 188.15625 940.128906 C 197.042969 929.640625 173.398438 915.609375 184.765625 908.308594 C 211.558594 891.109375 257.765625 910.800781 287.902344 903.800781 C 316.191406 897.230469 332.679688 867.039062 360.085938 857.089844 C 421.859375 834.648438 420 901.648438 473.046875 909.21875 C 519.351562 915.820312 530.9375 852.441406 578.101562 849.300781 C 609.734375 847.199219 626.050781 896.730469 649.265625 912.601562 C 687.277344 938.578125 798.0625 901.988281 796.117188 975.789062 C 795 1018.144531 727.066406 978.421875 707.214844 984.25 C 683.898438 991.101562 683.953125 1032.5 658.304688 1033.78125 C 630.457031 1035.171875 642.019531 1012.066406 624.867188 1005.011719 C 616.1875 1001.441406 597.292969 1033.125 581.378906 1034.570312 C 563.683594 1036.179688 557.15625 1018.175781 543.871094 1016.96875 C 529.265625 1015.644531 523.175781 1035.042969 510.550781 1038.070312 C 502.753906 1039.9375 484.84375 1027.753906 482.195312 1029.832031 C 463.351562 1044.621094 467.523438 1123.707031 458.023438 1125.0625 C 445.46875 1126.851562 432.722656 1040.769531 430.570312 1039.875 C 428.160156 1038.871094 426.75 1041.59375 425.714844 1043.148438 C 418.230469 1054.359375 427.898438 1097.53125 406.058594 1097.53125 C 381.085938 1097.53125 400.253906 1025.546875 366.183594 1038.632812 C 350.886719 1044.511719 362.316406 1090.484375 347.769531 1092.90625 C 335.722656 1094.910156 332.023438 1044.332031 320.097656 1053.863281 C 308.363281 1063.242188 322.707031 1179.449219 298.066406 1182.039062 C 275.875 1184.375 295.285156 1062.609375 272.992188 1044.386719 C 254.710938 1029.449219 254.96875 1088.210938 244.296875 1090.875 C 232.941406 1093.710938 239.621094 1030.738281 210.746094 1047.433594 C 196.605469 1055.613281 201.96875 1120.355469 175.390625 1114.230469 C 159.820312 1110.640625 174.546875 1057.664062 163.417969 1059.054688 C 160.550781 1059.414062 158.925781 1063.667969 158.445312 1066.050781 C 151.234375 1102.078125 151.808594 1138.351562 140.710938 1174.367188 C 140.542969 1174.914062 135.328125 1191.226562 133.820312 1190.390625 C 118.09375 1181.660156 129.789062 1076.960938 138.90625 1055.105469 C 147.941406 1033.445312 100.613281 1013.914062 116.425781 987.070312 C 129.519531 964.828125 166.597656 975.46875 170.648438 969.921875 " />
<path fill-rule="evenodd" fill="rgb(81.639099%, 93.75%, 96.09375%)" fill-opacity="1" d="M 170.648438 952.921875 C 174.695312 947.371094 136.773438 950.558594 140.710938 936.789062 C 145.8125 918.949219 178.363281 934.691406 188.15625 923.128906 C 197.042969 912.640625 173.398438 898.609375 184.765625 891.308594 C 211.558594 874.109375 257.765625 893.800781 287.902344 886.800781 C 316.191406 880.230469 332.679688 850.039062 360.085938 840.089844 C 421.859375 817.648438 420 884.648438 473.046875 892.21875 C 519.351562 898.820312 530.9375 835.441406 578.101562 832.300781 C 609.734375 830.199219 626.050781 879.730469 649.265625 895.601562 C 687.277344 921.578125 798.0625 884.988281 796.117188 958.789062 C 795 1001.144531 727.066406 961.421875 707.214844 967.25 C 683.898438 974.101562 683.953125 1015.5 658.304688 1016.78125 C 630.457031 1018.171875 642.019531 995.058594 624.867188 988.011719 C 616.1875 984.441406 597.292969 1016.125 581.378906 1017.570312 C 563.683594 1019.179688 557.15625 1001.175781 543.871094 999.96875 C 529.265625 998.640625 523.175781 1018.042969 510.550781 1021.070312 C 502.753906 1022.9375 484.84375 1010.753906 482.195312 1012.832031 C 463.351562 1027.621094 467.523438 1106.707031 458.023438 1108.0625 C 445.46875 1109.851562 432.722656 1023.769531 430.570312 1022.875 C 428.160156 1021.871094 426.75 1024.59375 425.714844 1026.148438 C 418.230469 1037.359375 427.898438 1080.53125 406.058594 1080.53125 C 381.085938 1080.53125 400.253906 1008.546875 366.183594 1021.632812 C 350.886719 1027.511719 362.316406 1073.484375 347.769531 1075.90625 C 335.722656 1077.910156 332.023438 1027.332031 320.097656 1036.863281 C 308.363281 1046.242188 322.707031 1162.449219 298.066406 1165.039062 C 275.875 1167.375 295.285156 1045.609375 272.992188 1027.386719 C 254.710938 1012.449219 254.96875 1071.210938 244.296875 1073.875 C 232.941406 1076.710938 239.621094 1013.738281 210.746094 1030.433594 C 196.605469 1038.613281 201.96875 1103.355469 175.390625 1097.230469 C 159.820312 1093.640625 174.546875 1040.664062 163.417969 1042.054688 C 160.550781 1042.414062 158.925781 1046.667969 158.445312 1049.050781 C 151.234375 1085.078125 151.808594 1121.351562 140.710938 1157.367188 C 140.542969 1157.914062 135.328125 1174.226562 133.820312 1173.390625 C 118.09375 1164.660156 129.789062 1059.960938 138.90625 1038.105469 C 147.941406 1016.445312 100.613281 996.910156 116.425781 970.070312 C 129.519531 947.828125 166.597656 958.46875 170.648438 952.921875 " />
<g clip-path="url(#clip-20)">
<g clip-path="url(#clip-21)">
<path fill-rule="evenodd" fill="rgb(91.796875%, 98.4375%, 100%)" fill-opacity="1" d="M 170.648438 911.019531 C 174.695312 905.46875 136.773438 908.648438 140.710938 894.878906 C 145.8125 877.050781 178.363281 892.789062 188.15625 881.230469 C 197.042969 870.738281 173.398438 856.710938 184.765625 849.410156 C 211.558594 832.210938 257.765625 851.898438 287.902344 844.898438 C 316.191406 838.328125 332.679688 808.140625 360.085938 798.191406 C 421.859375 775.75 420 842.75 473.046875 850.320312 C 519.351562 856.921875 530.9375 793.539062 578.101562 790.398438 C 609.734375 788.300781 626.050781 837.828125 649.265625 853.699219 C 687.277344 879.679688 798.0625 843.089844 796.117188 916.890625 C 795 959.238281 727.066406 919.519531 707.214844 925.351562 C 683.898438 932.199219 683.953125 973.601562 658.304688 974.878906 C 630.457031 976.269531 642.019531 953.160156 624.867188 946.109375 C 616.1875 942.539062 597.292969 974.230469 581.378906 975.671875 C 563.683594 977.28125 557.15625 959.28125 543.871094 958.070312 C 529.265625 956.738281 523.175781 976.140625 510.550781 979.171875 C 502.753906 981.039062 484.84375 968.851562 482.195312 970.929688 C 463.351562 985.71875 467.523438 1064.804688 458.023438 1066.160156 C 445.46875 1067.953125 432.722656 981.871094 430.570312 980.96875 C 428.160156 979.96875 426.75 982.691406 425.714844 984.25 C 418.230469 995.460938 427.898438 1038.632812 406.058594 1038.632812 C 381.085938 1038.632812 400.253906 966.640625 366.183594 979.730469 C 350.886719 985.609375 362.316406 1031.582031 347.769531 1034.003906 C 335.722656 1036.011719 332.023438 985.429688 320.097656 994.960938 C 308.363281 1004.339844 322.707031 1120.550781 298.066406 1123.140625 C 275.875 1125.472656 295.285156 1003.707031 272.992188 985.488281 C 254.710938 970.550781 254.96875 1029.308594 244.296875 1031.972656 C 232.941406 1034.808594 239.621094 971.839844 210.746094 988.53125 C 196.605469 996.710938 201.96875 1061.453125 175.390625 1055.328125 C 159.820312 1051.742188 174.546875 998.769531 163.417969 1000.15625 C 160.550781 1000.511719 158.925781 1004.765625 158.445312 1007.152344 C 151.234375 1043.179688 151.808594 1079.449219 140.710938 1115.46875 C 140.542969 1116.015625 135.328125 1132.328125 133.820312 1131.488281 C 118.09375 1122.761719 160.953125 1004.839844 138.90625 996.210938 C 81.683594 973.800781 91.851562 954.921875 116.425781 928.171875 C 133.882812 909.160156 166.597656 916.570312 170.648438 911.019531 " />
</g>
</g>
<g clip-path="url(#clip-22)">
<g clip-path="url(#clip-23)">
<path fill-rule="evenodd" fill="rgb(100%, 100%, 100%)" fill-opacity="1" d="M 108.910156 957.75 C 107.910156 971.128906 120.753906 981.339844 139.074219 972.941406 C 144.371094 970.511719 141.476562 990.429688 148.695312 991.03125 C 156.269531 991.660156 162.105469 974.761719 167.375 976.410156 C 173.992188 978.480469 174.746094 999.75 179.828125 999.75 C 184.632812 999.75 201.90625 943.011719 226.082031 953.070312 C 237.367188 957.761719 232.648438 984.109375 246.054688 987.148438 C 258.996094 990.089844 264.800781 954.359375 283.414062 967.039062 C 290.914062 972.148438 286.5 1002.523438 296.433594 1005.003906 C 300.585938 1006.039062 317.113281 978.621094 321.261719 975.121094 C 328.144531 969.300781 333.328125 987.929688 337.191406 988.199219 C 348.507812 989.011719 349.535156 956.828125 362.5 955.25 C 383.351562 952.710938 383.175781 983.761719 400.101562 983.761719 C 413.300781 983.761719 421.558594 958.21875 432.042969 963.730469 C 437.894531 966.808594 443.542969 996.328125 449.105469 996.039062 C 451.011719 995.941406 451.089844 993.488281 451.53125 992.160156 C 455.378906 980.640625 454.875 972.371094 465.523438 964.859375 C 481.503906 953.589844 483.378906 965.609375 492.933594 963 C 504.144531 959.949219 514.601562 946.46875 524.875 941.03125 C 537.484375 934.371094 559.175781 962.179688 571.9375 958.398438 C 590.519531 952.898438 593.382812 935.171875 616.898438 936.019531 C 629.0625 936.46875 635.277344 955.558594 646.496094 951.449219 C 662.042969 945.761719 671.269531 921.421875 690.972656 920.191406 C 710.757812 918.960938 795.800781 937.019531 792.859375 910.578125 C 788.75 873.628906 695.660156 841 669.382812 831.910156 C 524.316406 781.761719 366.523438 781.828125 220.828125 832.398438 C 204.800781 837.960938 41.453125 905.628906 83.601562 952.988281 C 96.921875 967.960938 109.550781 949.191406 108.910156 957.75 " />
</g>
</g>
</svg>