<?xml version='1.0' encoding='utf-8'?>
<svg xmlns="http://www.w3.org/2000/svg" width="2000" height="2000" viewBox="0 0 2000 2000"><defs><clipPath id="clip-24">
<path clip-rule="nonzero" d="M 113 415 L 916 415 L 916 677 L 113 677 Z M 113 415 " />
</clipPath>
<clipPath id="clip-25">
<path clip-rule="evenodd" d="M 170.449219 442.109375 C 227.042969 376.929688 312.191406 447.941406 386.0625 462.699219 C 409.632812 467.410156 431.65625 449.019531 455.960938 449.019531 C 535.4375 449.019531 620.777344 492.320312 689.085938 528.710938 C 723.09375 546.828125 751.039062 532.679688 786.089844 540.128906 C 829.476562 549.351562 864.234375 581.308594 910.914062 581.308594 C 919.769531 581.308594 914.371094 590.941406 910.488281 594.429688 C 879.789062 622.03125 800.035156 593.828125 763.496094 596.261719 C 737.59375 597.988281 711.972656 607.558594 685.835938 606.839844 C 672.242188 606.46875 636.125 594.390625 623.988281 602.050781 C 594.214844 620.828125 606.28125 675.121094 592.644531 685.820312 C 592.011719 686.320312 591.03125 686.101562 590.242188 685.960938 C 574.589844 683.359375 589.554688 633.050781 577.675781 623.339844 C 561.722656 610.308594 511.015625 647.140625 481.515625 638.71875 C 479.773438 638.21875 476.027344 636.5 474.175781 637.171875 C 460.511719 642.039062 462.210938 684.800781 460.617188 695.410156 C 459.355469 703.839844 461.480469 725.191406 454.546875 720.238281 C 446.648438 714.601562 452.496094 652.660156 434.636719 641.679688 C 425.816406 636.261719 410.105469 642.808594 400.890625 642.808594 C 335.730469 642.808594 349.742188 680.730469 285.667969 695.128906 C 257.167969 701.539062 299.109375 651.539062 257.003906 643.648438 C 183.609375 629.910156 209.578125 695.578125 176.519531 694 C 101.96875 690.460938 105.695312 477.859375 125.121094 447.050781 C 145.113281 415.328125 160.484375 453.578125 170.449219 442.109375 Z M 170.449219 442.109375 " />
</clipPath>
<clipPath id="clip-26">
<path clip-rule="nonzero" d="M 113 415 L 886 415 L 886 599 L 113 599 Z M 113 415 " />
</clipPath>
<clipPath id="clip-27">
<path clip-rule="evenodd" d="M 170.449219 442.109375 C 227.042969 376.929688 312.191406 447.941406 386.0625 462.699219 C 409.632812 467.410156 431.65625 449.019531 455.960938 449.019531 C 535.4375 449.019531 620.777344 492.320312 689.085938 528.710938 C 723.09375 546.828125 751.039062 532.679688 786.089844 540.128906 C 829.476562 549.351562 864.234375 581.308594 910.914062 581.308594 C 919.769531 581.308594 914.371094 590.941406 910.488281 594.429688 C 879.789062 622.03125 800.035156 593.828125 763.496094 596.261719 C 737.59375 597.988281 711.972656 607.558594 685.835938 606.839844 C 672.242188 606.46875 636.125 594.390625 623.988281 602.050781 C 594.214844 620.828125 606.28125 675.121094 592.644531 685.820312 C 592.011719 686.320312 591.03125 686.101562 590.242188 685.960938 C 574.589844 683.359375 589.554688 633.050781 577.675781 623.339844 C 561.722656 610.308594 511.015625 647.140625 481.515625 638.71875 C 479.773438 638.21875 476.027344 636.5 474.175781 637.171875 C 460.511719 642.039062 462.210938 684.800781 460.617188 695.410156 C 459.355469 703.839844 461.480469 725.191406 454.546875 720.238281 C 446.648438 714.601562 452.496094 652.660156 434.636719 641.679688 C 425.816406 636.261719 410.105469 642.808594 400.890625 642.808594 C 335.730469 642.808594 349.742188 680.730469 285.667969 695.128906 C 257.167969 701.539062 299.109375 651.539062 257.003906 643.648438 C 183.609375 629.910156 209.578125 695.578125 176.519531 694 C 101.96875 690.460938 105.695312 477.859375 125.121094 447.050781 C 145.113281 415.328125 160.484375 453.578125 170.449219 442.109375 Z M 170.449219 442.109375 " />
</clipPath>
</defs><path fill-rule="evenodd" fill="rgb(16.697693%, 27.293396%, 31.396484%)" fill-opacity="1" d="M 170.449219 459.109375 C 227.042969 393.929688 312.191406 464.941406 386.0625 479.699219 C 409.632812 484.410156 431.65625 466.019531 455.960938 466.019531 C 535.4375 466.019531 620.777344 509.320312 689.085938 545.710938 C 723.09375 563.828125 751.039062 549.679688 786.089844 557.128906 C 829.476562 566.351562 864.234375 598.308594 910.914062 598.308594 C 919.769531 598.308594 914.371094 607.941406 910.488281 611.429688 C 879.789062 639.03125 800.035156 610.828125 763.496094 613.261719 C 737.59375 614.988281 711.972656 624.558594 685.835938 623.839844 C 672.242188 623.46875 636.125 611.390625 623.988281 619.050781 C 594.214844 637.828125 606.28125 692.121094 592.644531 702.820312 C 592.011719 703.320312 591.03125 703.101562 590.242188 702.960938 C 574.589844 700.359375 589.554688 650.050781 577.675781 640.339844 C 561.722656 627.308594 511.015625 664.140625 481.515625 655.71875 C 479.773438 655.21875 476.027344 653.5 474.175781 654.171875 C 460.511719 659.039062 462.210938 701.800781 460.617188 712.410156 C 459.355469 720.839844 461.480469 742.191406 454.546875 737.238281 C 446.648438 731.601562 452.496094 669.660156 434.636719 658.679688 C 425.816406 653.261719 410.105469 659.808594 400.890625 659.808594 C 335.730469 659.808594 349.742188 697.730469 285.667969 712.128906 C 257.167969 718.539062 299.109375 668.539062 257.003906 660.648438 C 183.609375 646.910156 209.578125 712.578125 176.519531 711 C 101.96875 707.460938 105.695312 494.859375 125.121094 464.050781 C 145.113281 432.328125 160.484375 470.578125 170.449219 459.109375 " />
<path fill-rule="evenodd" fill="rgb(81.639099%, 93.75%, 96.09375%)" fill-opacity="1" d="M 170.449219 442.109375 C 227.042969 376.929688 312.191406 447.941406 386.0625 462.699219 C 409.632812 467.410156 431.65625 449.019531 455.960938 449.019531 C 535.4375 449.019531 620.777344 492.320312 689.085938 528.710938 C 723.09375 546.828125 751.039062 532.679688 786.089844 540.128906 C 829.476562 549.351562 864.234375 581.308594 910.914062 581.308594 C 919.769531 581.308594 914.371094 590.941406 910.488281 594.429688 C 879.789062 622.03125 800.035156 593.828125 763.496094 596.261719 C 737.59375 597.988281 711.972656 607.558594 685.835938 606.839844 C 672.242188 606.46875 636.125 594.390625 623.988281 602.050781 C 594.214844 620.828125 606.28125 675.121094 592.644531 685.820312 C 592.011719 686.320312 591.03125 686.101562 590.242188 685.960938 C 574.589844 683.359375 589.554688 633.050781 577.675781 623.339844 C 561.722656 610.308594 511.015625 647.140625 481.515625 638.71875 C 479.773438 638.21875 476.027344 636.5 474.175781 637.171875 C 460.511719 642.039062 462.210938 684.800781 460.617188 695.410156 C 459.355469 703.839844 461.480469 725.191406 454.546875 720.238281 C 446.648438 714.601562 452.496094 652.660156 434.636719 641.679688 C 425.816406 636.261719 410.105469 642.808594 400.890625 642.808594 C 335.730469 642.808594 349.742188 680.730469 285.667969 695.128906 C 257.167969 701.539062 299.109375 651.539062 257.003906 643.648438 C 183.609375 629.910156 209.578125 695.578125 176.519531 694 C 101.96875 690.460938 105.695312 477.859375 125.121094 447.050781 C 145.113281 415.328125 160.484375 453.578125 170.449219 442.109375 " />
<g clip-path="url(#clip-24)">
<g clip-path="url(#clip-25)">
<path fill-rule="evenodd" fill="rgb(91.796875%, 98.4375%, 100%)" fill-opacity="1" d="M 181.785156 397.390625 C 238.378906 332.21875 323.527344 403.230469 397.402344 417.980469 C 420.96875 422.691406 442.992188 404.300781 467.296875 404.300781 C 546.773438 404.300781 632.113281 447.601562 700.421875 483.988281 C 734.433594 502.109375 762.375 487.96875 797.425781 495.410156 C 840.8125 504.628906 875.570312 536.601562 922.25 536.601562 C 931.105469 536.601562 926.132812 588.960938 922.25 592.449219 C 891.550781 620.050781 811.390625 561.820312 774.851562 564.25 C 748.945312 565.980469 723.3125 562.839844 697.171875 562.128906 C 683.578125 561.75 647.460938 549.679688 635.328125 557.328125 C 605.554688 576.109375 617.617188 630.410156 603.980469 641.109375 C 603.347656 641.601562 602.371094 641.378906 601.578125 641.25 C 585.929688 638.640625 600.890625 588.339844 589.011719 578.628906 C 573.058594 565.589844 522.351562 602.421875 492.851562 594 C 491.113281 593.5 487.367188 591.789062 485.511719 592.449219 C 471.847656 597.320312 473.550781 640.089844 471.953125 650.699219 C 470.691406 659.121094 472.816406 680.46875 465.882812 675.519531 C 457.984375 669.878906 463.832031 607.941406 445.972656 596.960938 C 437.152344 591.539062 421.445312 598.089844 412.226562 598.089844 C 347.066406 598.089844 361.078125 636.019531 297.007812 650.421875 C 268.503906 656.820312 310.445312 606.820312 268.34375 598.941406 C 194.945312 585.191406 220.914062 650.859375 187.855469 649.289062 C 165.15625 648.210938 118.882812 621.261719 108.929688 592.449219 C 86.199219 526.640625 122.949219 423.761719 136.457031 402.328125 C 156.453125 370.609375 171.820312 408.871094 181.785156 397.390625 " />
</g>
</g>
<g clip-path="url(#clip-26)">
<g clip-path="url(#clip-27)">
<path fill-rule="evenodd" fill="rgb(100%, 100%, 100%)" fill-opacity="1" d="M 91.792969 531.21875 C 106.472656 550.148438 156.042969 592.011719 175.730469 588.730469 C 206.710938 583.570312 228.300781 536.441406 264.277344 544.949219 C 307.457031 555.160156 291.382812 580.230469 305.355469 596.800781 C 306.003906 597.570312 305.96875 597.679688 306.894531 597.941406 C 319.511719 601.371094 379.710938 553.738281 395.925781 548.660156 C 449.789062 531.808594 441.617188 578.46875 457.785156 577.820312 C 468.273438 577.398438 482.820312 564.210938 492.074219 559.890625 C 505.449219 553.660156 556.132812 533.949219 569.378906 532.191406 C 590.960938 529.308594 584.347656 559.28125 598.570312 560.378906 C 600.117188 560.488281 630.789062 535.011719 646.117188 535.011719 C 691.429688 535.011719 736.96875 553.269531 783.183594 555.050781 C 801.597656 555.75 814.882812 566.730469 831.296875 572.980469 C 843.0625 577.449219 855.214844 572.96875 867.121094 573.460938 C 870.558594 573.601562 884.503906 575.308594 885.234375 570.550781 C 891.964844 526.871094 733.535156 478.359375 710.40625 468.539062 C 604.253906 423.480469 494.523438 401.960938 380.964844 383.730469 C 335.996094 376.511719 290.136719 369.03125 244.464844 370.488281 C 210.8125 371.558594 108.128906 381.261719 91.226562 420.078125 C 84.15625 436.328125 86.917969 458.058594 87.667969 475.160156 C 88.488281 493.800781 80.3125 516.410156 91.792969 531.21875 " />
</g>
</g>
</svg>