<?xml version='1.0' encoding='utf-8'?>
<svg xmlns="http://www.w3.org/2000/svg" width="2000" height="2000" viewBox="0 0 2000 2000"><defs><clipPath id="clip-28">
<path clip-rule="nonzero" d="M 53 0 L 744 0 L 744 284 L 53 284 Z M 53 0 " />
</clipPath>
<clipPath id="clip-29">
<path clip-rule="evenodd" d="M 60.992188 46.980469 C 53.296875 87.839844 44.683594 221.859375 72.289062 249.941406 C 105.34375 283.558594 161.351562 249.828125 199.796875 267.429688 C 212.984375 273.46875 207.601562 299.871094 218.574219 306.210938 C 220.960938 307.589844 229.824219 284.671875 232.269531 281.53125 C 238.664062 273.320312 268.054688 260.578125 276.890625 269.398438 C 282.40625 274.910156 293.03125 319.058594 297.222656 319.75 C 299.453125 320.121094 297.996094 267.851562 330.125 265.171875 C 332.101562 265.011719 334.992188 263.261719 336.902344 263.621094 C 350.125 266.101562 343.738281 302.199219 354.554688 302.96875 C 358.515625 303.25 360.835938 299.339844 362.882812 296.480469 C 393.78125 253.269531 421.476562 270.039062 470.195312 263.898438 C 473.210938 263.519531 507.027344 258.601562 509.308594 261.789062 C 511.917969 265.429688 502.921875 321.589844 516.652344 321.589844 C 518.160156 321.589844 529.328125 271.191406 535.292969 266.578125 C 556.5625 250.160156 625.605469 256.78125 648.820312 268.980469 C 660.773438 275.261719 661.816406 293.320312 673.527344 300.148438 C 681.433594 304.761719 684.683594 277.890625 684.683594 274.339844 C 684.683594 259.820312 735.3125 268.199219 743 250.640625 C 754.140625 225.210938 668.171875 220.949219 655.3125 213.128906 C 624.445312 194.359375 662.851562 142.800781 595.304688 146.421875 C 564.039062 148.089844 534.910156 156.269531 504.367188 143.460938 C 474.386719 130.878906 468.488281 78.769531 439.132812 74.769531 C 398.296875 69.210938 370.671875 144.859375 328.007812 137.25 C 304.585938 133.070312 311.972656 77.148438 280.703125 69.828125 C 243.8125 61.199219 179.746094 120.609375 146.136719 84.640625 C 129.085938 66.390625 147.140625 22.25 118.460938 4.808594 C 88.761719 -13.238281 65.390625 23.640625 60.992188 46.980469 Z M 60.992188 46.980469 " />
</clipPath>
<clipPath id="clip-30">
<path clip-rule="nonzero" d="M 53 0 L 737 0 L 737 232 L 53 232 Z M 53 0 " />
</clipPath>
<clipPath id="clip-31">
<path clip-rule="evenodd" d="M 60.992188 46.980469 C 53.296875 87.839844 44.683594 221.859375 72.289062 249.941406 C 105.34375 283.558594 161.351562 249.828125 199.796875 267.429688 C 212.984375 273.46875 207.601562 299.871094 218.574219 306.210938 C 220.960938 307.589844 229.824219 284.671875 232.269531 281.53125 C 238.664062 273.320312 268.054688 260.578125 276.890625 269.398438 C 282.40625 274.910156 293.03125 319.058594 297.222656 319.75 C 299.453125 320.121094 297.996094 267.851562 330.125 265.171875 C 332.101562 265.011719 334.992188 263.261719 336.902344 263.621094 C 350.125 266.101562 343.738281 302.199219 354.554688 302.96875 C 358.515625 303.25 360.835938 299.339844 362.882812 296.480469 C 393.78125 253.269531 421.476562 270.039062 470.195312 263.898438 C 473.210938 263.519531 507.027344 258.601562 509.308594 261.789062 C 511.917969 265.429688 502.921875 321.589844 516.652344 321.589844 C 518.160156 321.589844 529.328125 271.191406 535.292969 266.578125 C 556.5625 250.160156 625.605469 256.78125 648.820312 268.980469 C 660.773438 275.261719 661.816406 293.320312 673.527344 300.148438 C 681.433594 304.761719 684.683594 277.890625 684.683594 274.339844 C 684.683594 259.820312 735.3125 268.199219 743 250.640625 C 754.140625 225.210938 668.171875 220.949219 655.3125 213.128906 C 624.445312 194.359375 662.851562 142.800781 595.304688 146.421875 C 564.039062 148.089844 534.910156 156.269531 504.367188 143.460938 C 474.386719 130.878906 468.488281 78.769531 439.132812 74.769531 C 398.296875 69.210938 370.671875 144.859375 328.007812 137.25 C 304.585938 133.070312 311.972656 77.148438 280.703125 69.828125 C 243.8125 61.199219 179.746094 120.609375 146.136719 84.640625 C 129.085938 66.390625 147.140625 22.25 118.460938 4.808594 C 88.761719 -13.238281 65.390625 23.640625 60.992188 46.980469 Z M 60.992188 46.980469 " />
</clipPath>
</defs><path fill-rule="evenodd" fill="rgb(16.697693%, 27.293396%, 31.396484%)" fill-opacity="1" d="M 59.992188 61.980469 C 52.296875 102.839844 43.683594 236.859375 71.289062 264.941406 C 104.34375 298.558594 160.351562 264.828125 198.796875 282.429688 C 211.984375 288.46875 206.601562 314.871094 217.574219 321.210938 C 219.960938 322.589844 228.824219 299.671875 231.269531 296.53125 C 237.664062 288.320312 267.054688 275.578125 275.890625 284.398438 C 281.40625 289.910156 292.03125 334.058594 296.222656 334.75 C 298.453125 335.121094 296.996094 282.851562 329.125 280.171875 C 331.101562 280.011719 333.992188 278.261719 335.902344 278.621094 C 349.125 281.101562 342.738281 317.199219 353.554688 317.96875 C 357.515625 318.25 359.835938 314.339844 361.882812 311.480469 C 392.78125 268.269531 420.476562 285.039062 469.195312 278.898438 C 472.210938 278.519531 506.027344 273.601562 508.308594 276.789062 C 510.917969 280.429688 501.921875 336.589844 515.652344 336.589844 C 517.160156 336.589844 528.328125 286.191406 534.292969 281.578125 C 555.5625 265.160156 624.605469 271.78125 647.820312 283.980469 C 659.773438 290.261719 660.816406 308.320312 672.527344 315.148438 C 680.433594 319.761719 683.683594 292.890625 683.683594 289.339844 C 683.683594 274.820312 734.3125 283.199219 742 265.640625 C 753.140625 240.210938 667.171875 235.949219 654.3125 228.128906 C 623.445312 209.359375 661.851562 157.800781 594.304688 161.421875 C 563.039062 163.089844 533.910156 171.269531 503.367188 158.460938 C 473.386719 145.878906 467.488281 93.769531 438.132812 89.769531 C 397.296875 84.210938 369.671875 159.859375 327.007812 152.25 C 303.585938 148.070312 310.972656 92.148438 279.703125 84.828125 C 242.8125 76.199219 178.746094 135.609375 145.136719 99.640625 C 128.085938 81.390625 146.140625 37.25 117.460938 19.808594 C 87.761719 1.761719 64.390625 38.640625 59.992188 61.980469 " />
<path fill-rule="evenodd" fill="rgb(81.639099%, 93.75%, 96.09375%)" fill-opacity="1" d="M 60.992188 46.980469 C 53.296875 87.839844 44.683594 221.859375 72.289062 249.941406 C 105.34375 283.558594 161.351562 249.828125 199.796875 267.429688 C 212.984375 273.46875 207.601562 299.871094 218.574219 306.210938 C 220.960938 307.589844 229.824219 284.671875 232.269531 281.53125 C 238.664062 273.320312 268.054688 260.578125 276.890625 269.398438 C 282.40625 274.910156 293.03125 319.058594 297.222656 319.75 C 299.453125 320.121094 297.996094 267.851562 330.125 265.171875 C 332.101562 265.011719 334.992188 263.261719 336.902344 263.621094 C 350.125 266.101562 343.738281 302.199219 354.554688 302.96875 C 358.515625 303.25 360.835938 299.339844 362.882812 296.480469 C 393.78125 253.269531 421.476562 270.039062 470.195312 263.898438 C 473.210938 263.519531 507.027344 258.601562 509.308594 261.789062 C 511.917969 265.429688 502.921875 321.589844 516.652344 321.589844 C 518.160156 321.589844 529.328125 271.191406 535.292969 266.578125 C 556.5625 250.160156 625.605469 256.78125 648.820312 268.980469 C 660.773438 275.261719 661.816406 293.320312 673.527344 300.148438 C 681.433594 304.761719 684.683594 277.890625 684.683594 274.339844 C 684.683594 259.820312 735.3125 268.199219 743 250.640625 C 754.140625 225.210938 668.171875 220.949219 655.3125 213.128906 C 624.445312 194.359375 662.851562 142.800781 595.304688 146.421875 C 564.039062 148.089844 534.910156 156.269531 504.367188 143.460938 C 474.386719 130.878906 468.488281 78.769531 439.132812 74.769531 C 398.296875 69.210938 370.671875 144.859375 328.007812 137.25 C 304.585938 133.070312 311.972656 77.148438 280.703125 69.828125 C 243.8125 61.199219 179.746094 120.609375 146.136719 84.640625 C 129.085938 66.390625 147.140625 22.25 118.460938 4.808594 C 88.761719 -13.238281 65.390625 23.640625 60.992188 46.980469 " />
<g clip-path="url(#clip-28)">
<g clip-path="url(#clip-29)">
<path fill-rule="evenodd" fill="rgb(91.796875%, 98.4375%, 100%)" fill-opacity="1" d="M 60.992188 9.269531 C 50.015625 50.679688 27.3125 187.039062 72.289062 212.230469 C 113.429688 235.269531 161.351562 212.121094 199.796875 229.71875 C 212.984375 235.761719 207.601562 262.160156 218.574219 268.5 C 220.960938 269.878906 229.824219 246.960938 232.269531 243.820312 C 238.664062 235.609375 268.054688 222.871094 276.890625 231.691406 C 282.40625 237.199219 293.03125 281.339844 297.222656 282.039062 C 299.453125 282.410156 297.996094 230.140625 330.125 227.460938 C 332.101562 227.300781 334.992188 225.550781 336.902344 225.910156 C 350.125 228.390625 343.738281 264.488281 354.554688 265.261719 C 358.515625 265.539062 360.835938 261.628906 362.882812 258.769531 C 393.78125 215.558594 421.476562 232.328125 470.195312 226.191406 C 473.210938 225.808594 507.027344 220.890625 509.308594 224.078125 C 511.917969 227.71875 502.921875 283.878906 516.652344 283.878906 C 518.160156 283.878906 529.328125 233.46875 535.292969 228.871094 C 556.5625 212.449219 625.605469 219.070312 648.820312 231.269531 C 660.773438 237.550781 661.816406 255.609375 673.527344 262.441406 C 681.433594 267.039062 684.683594 240.179688 684.683594 236.628906 C 684.683594 222.109375 754.855469 258.160156 762.542969 240.609375 C 773.683594 215.179688 668.171875 183.238281 655.3125 175.421875 C 624.445312 156.648438 662.851562 105.089844 595.304688 108.710938 C 564.039062 110.378906 534.910156 118.558594 504.367188 105.738281 C 474.386719 93.171875 468.488281 41.058594 439.132812 37.058594 C 398.296875 31.5 370.671875 107.148438 328.007812 99.539062 C 304.585938 95.359375 311.972656 39.441406 280.703125 32.121094 C 243.8125 23.488281 179.746094 82.898438 146.136719 46.929688 C 129.085938 28.679688 147.140625 -15.460938 118.460938 -32.890625 C 88.761719 -50.949219 67.082031 -13.691406 60.992188 9.269531 " />
</g>
</g>
<g clip-path="url(#clip-30)">
<g clip-path="url(#clip-31)">
<path fill-rule="evenodd" fill="rgb(100%, 100%, 100%)" fill-opacity="1" d="M 32.789062 80.671875 C 36.035156 87.511719 25.722656 151.769531 32.789062 160.449219 C 56.0625 189.070312 112.519531 166.351562 148.773438 169.039062 C 162.128906 170.019531 175.980469 162.828125 189.121094 164.851562 C 203.625 167.070312 206.121094 191.410156 216.886719 192.699219 C 237.851562 195.210938 254 179.460938 273.273438 180.738281 C 283.609375 181.429688 279.84375 198.738281 292.523438 198.738281 C 308.417969 198.738281 314.515625 179.261719 332.996094 182.101562 C 348.507812 184.480469 352.542969 207.53125 374.699219 205.761719 C 386.183594 204.851562 389.460938 196.121094 399.378906 192.820312 C 424.847656 184.339844 455.652344 180.820312 482.296875 178.398438 C 500.097656 176.789062 509.570312 196.03125 531.28125 192.078125 C 559.234375 187.011719 586.925781 172.539062 618.148438 180.738281 C 623.390625 182.121094 626.433594 184.871094 628.757812 189.371094 C 634.347656 200.179688 647.488281 216.21875 665.980469 222.421875 C 708.886719 236.800781 760.40625 236.160156 723.769531 199.480469 C 627.019531 102.609375 341.496094 -3.128906 219.230469 -20.019531 C 167.382812 -27.179688 97.613281 -30.621094 65.171875 -7.210938 C 33.488281 15.660156 19.410156 52.460938 32.789062 80.671875 " />
</g>
</g>
</svg>