<?xml version='1.0' encoding='utf-8'?>
<svg xmlns="http://www.w3.org/2000/svg" width="2000" height="2000" viewBox="0 0 2000 2000"><defs><clipPath id="clip-0">

</clipPath>
<clipPath id="clip-1">
<path clip-rule="evenodd" d="M 1401.53125 1314.226562 C 1402.21875 1309.46875 1383.179688 1310.089844 1383.179688 1301.183594 C 1383.179688 1280.546875 1401.898438 1284.824219 1407.890625 1272.269531 C 1415 1257.34375 1403.828125 1240.609375 1414.011719 1224.902344 C 1415.03125 1223.328125 1416.171875 1221.835938 1417.421875 1220.4375 C 1418.011719 1219.78125 1419.140625 1218.765625 1419.769531 1218.203125 C 1429.691406 1209.398438 1443.980469 1216.179688 1454.960938 1209.976562 C 1480.140625 1195.746094 1493.011719 1169.207031 1517.671875 1156.382812 C 1554.589844 1137.1875 1591.738281 1106.128906 1635.578125 1109.839844 C 1688.390625 1114.3125 1695.75 1172.339844 1731.359375 1192.347656 C 1775.300781 1217.039062 1825.789062 1180.960938 1870.441406 1204.570312 C 1886.320312 1212.964844 1885.609375 1233.722656 1898.328125 1241.945312 C 1914.070312 1252.121094 1942.398438 1254.929688 1944.21875 1280.378906 C 1946.269531 1309.085938 1886.808594 1296.921875 1879.621094 1315.757812 C 1870.339844 1340.085938 1867.480469 1439.511719 1862.441406 1441.398438 C 1859.261719 1442.589844 1856.859375 1429.105469 1856.441406 1427.410156 C 1850.671875 1403.847656 1856.328125 1346.894531 1836.441406 1329.507812 C 1824.640625 1319.195312 1806.929688 1347.238281 1798.191406 1351.367188 C 1778.921875 1360.484375 1766.539062 1340.734375 1748.890625 1338.910156 C 1739.160156 1337.902344 1732.460938 1349.03125 1722.53125 1348.429688 C 1687.738281 1346.324219 1687.570312 1338.296875 1660.519531 1326.921875 C 1658.359375 1326.011719 1654.769531 1325.617188 1652.871094 1327.273438 C 1639.28125 1339.15625 1648.628906 1456.992188 1639.578125 1463.023438 C 1639.390625 1463.148438 1633.550781 1426.15625 1633.109375 1423.886719 C 1630.058594 1408.265625 1613.398438 1332.070312 1600.628906 1324.101562 C 1591.238281 1318.238281 1571.890625 1340.554688 1559.558594 1340.554688 C 1550.210938 1340.554688 1526.449219 1321.339844 1522.140625 1324.925781 C 1512.929688 1332.59375 1514.761719 1359.929688 1508.378906 1364.179688 C 1502.230469 1368.273438 1497.789062 1340.394531 1495.078125 1338.675781 C 1493.621094 1337.746094 1479 1350.378906 1473.078125 1350.191406 C 1459.878906 1349.78125 1450.628906 1334.019531 1441.070312 1333.152344 C 1436.609375 1332.746094 1434.53125 1346.453125 1434.359375 1349.136719 C 1431.46875 1396.765625 1428.339844 1449.8125 1413.421875 1495.34375 C 1413.121094 1496.257812 1410.660156 1507.097656 1409.179688 1507.097656 C 1393.898438 1507.097656 1397.898438 1457.703125 1398.121094 1450.917969 C 1399.078125 1421.265625 1406.949219 1375.894531 1396.710938 1347.253906 C 1394.011719 1339.695312 1379.878906 1337.636719 1379.058594 1329.742188 C 1378.21875 1321.644531 1400.851562 1318.988281 1401.53125 1314.226562 Z M 1401.53125 1314.226562 " />
</clipPath>
<clipPath id="clip-2">
<path clip-rule="nonzero" d="M 1379 1109 L 1945 1109 L 1945 1309 L 1379 1309 Z M 1379 1109 " />
</clipPath>
<clipPath id="clip-3">
<path clip-rule="evenodd" d="M 1401.53125 1314.226562 C 1402.21875 1309.46875 1383.179688 1310.089844 1383.179688 1301.183594 C 1383.179688 1280.546875 1401.898438 1284.824219 1407.890625 1272.269531 C 1415 1257.34375 1403.828125 1240.609375 1414.011719 1224.902344 C 1415.03125 1223.328125 1416.171875 1221.835938 1417.421875 1220.4375 C 1418.011719 1219.78125 1419.140625 1218.765625 1419.769531 1218.203125 C 1429.691406 1209.398438 1443.980469 1216.179688 1454.960938 1209.976562 C 1480.140625 1195.746094 1493.011719 1169.207031 1517.671875 1156.382812 C 1554.589844 1137.1875 1591.738281 1106.128906 1635.578125 1109.839844 C 1688.390625 1114.3125 1695.75 1172.339844 1731.359375 1192.347656 C 1775.300781 1217.039062 1825.789062 1180.960938 1870.441406 1204.570312 C 1886.320312 1212.964844 1885.609375 1233.722656 1898.328125 1241.945312 C 1914.070312 1252.121094 1942.398438 1254.929688 1944.21875 1280.378906 C 1946.269531 1309.085938 1886.808594 1296.921875 1879.621094 1315.757812 C 1870.339844 1340.085938 1867.480469 1439.511719 1862.441406 1441.398438 C 1859.261719 1442.589844 1856.859375 1429.105469 1856.441406 1427.410156 C 1850.671875 1403.847656 1856.328125 1346.894531 1836.441406 1329.507812 C 1824.640625 1319.195312 1806.929688 1347.238281 1798.191406 1351.367188 C 1778.921875 1360.484375 1766.539062 1340.734375 1748.890625 1338.910156 C 1739.160156 1337.902344 1732.460938 1349.03125 1722.53125 1348.429688 C 1687.738281 1346.324219 1687.570312 1338.296875 1660.519531 1326.921875 C 1658.359375 1326.011719 1654.769531 1325.617188 1652.871094 1327.273438 C 1639.28125 1339.15625 1648.628906 1456.992188 1639.578125 1463.023438 C 1639.390625 1463.148438 1633.550781 1426.15625 1633.109375 1423.886719 C 1630.058594 1408.265625 1613.398438 1332.070312 1600.628906 1324.101562 C 1591.238281 1318.238281 1571.890625 1340.554688 1559.558594 1340.554688 C 1550.210938 1340.554688 1526.449219 1321.339844 1522.140625 1324.925781 C 1512.929688 1332.59375 1514.761719 1359.929688 1508.378906 1364.179688 C 1502.230469 1368.273438 1497.789062 1340.394531 1495.078125 1338.675781 C 1493.621094 1337.746094 1479 1350.378906 1473.078125 1350.191406 C 1459.878906 1349.78125 1450.628906 1334.019531 1441.070312 1333.152344 C 1436.609375 1332.746094 1434.53125 1346.453125 1434.359375 1349.136719 C 1431.46875 1396.765625 1428.339844 1449.8125 1413.421875 1495.34375 C 1413.121094 1496.257812 1410.660156 1507.097656 1409.179688 1507.097656 C 1393.898438 1507.097656 1397.898438 1457.703125 1398.121094 1450.917969 C 1399.078125 1421.265625 1406.949219 1375.894531 1396.710938 1347.253906 C 1394.011719 1339.695312 1379.878906 1337.636719 1379.058594 1329.742188 C 1378.21875 1321.644531 1400.851562 1318.988281 1401.53125 1314.226562 Z M 1401.53125 1314.226562 " />
</clipPath>
</defs><path fill-rule="evenodd" fill="rgb(16.697693%, 27.293396%, 31.396484%)" fill-opacity="1" d="M 1402.03125 1330.226562 C 1402.71875 1325.46875 1383.679688 1326.089844 1383.679688 1317.183594 C 1383.679688 1296.546875 1402.398438 1300.824219 1408.390625 1288.269531 C 1415.5 1273.34375 1404.328125 1256.609375 1414.511719 1240.902344 C 1415.53125 1239.328125 1416.671875 1237.835938 1417.921875 1236.4375 C 1418.511719 1235.78125 1419.640625 1234.765625 1420.269531 1234.203125 C 1430.191406 1225.398438 1444.480469 1232.179688 1455.460938 1225.976562 C 1480.640625 1211.746094 1493.511719 1185.207031 1518.171875 1172.382812 C 1555.089844 1153.1875 1592.238281 1122.128906 1636.078125 1125.839844 C 1688.890625 1130.3125 1696.25 1188.339844 1731.859375 1208.347656 C 1775.800781 1233.039062 1826.289062 1196.960938 1870.941406 1220.570312 C 1886.820312 1228.964844 1886.109375 1249.722656 1898.828125 1257.945312 C 1914.570312 1268.121094 1942.898438 1270.929688 1944.71875 1296.378906 C 1946.769531 1325.085938 1887.308594 1312.921875 1880.121094 1331.757812 C 1870.839844 1356.085938 1867.980469 1455.511719 1862.941406 1457.398438 C 1859.761719 1458.589844 1857.359375 1445.105469 1856.941406 1443.410156 C 1851.171875 1419.847656 1856.828125 1362.894531 1836.941406 1345.507812 C 1825.140625 1335.195312 1807.429688 1363.238281 1798.691406 1367.367188 C 1779.421875 1376.484375 1767.039062 1356.734375 1749.390625 1354.910156 C 1739.660156 1353.902344 1732.960938 1365.03125 1723.03125 1364.429688 C 1688.238281 1362.324219 1688.070312 1354.296875 1661.019531 1342.921875 C 1658.859375 1342.011719 1655.269531 1341.617188 1653.371094 1343.273438 C 1639.78125 1355.15625 1649.128906 1472.992188 1640.078125 1479.023438 C 1639.890625 1479.148438 1634.050781 1442.15625 1633.609375 1439.886719 C 1630.558594 1424.265625 1613.898438 1348.070312 1601.128906 1340.101562 C 1591.738281 1334.238281 1572.390625 1356.554688 1560.058594 1356.554688 C 1550.710938 1356.554688 1526.949219 1337.339844 1522.640625 1340.925781 C 1513.429688 1348.59375 1515.261719 1375.929688 1508.878906 1380.179688 C 1502.730469 1384.273438 1498.289062 1356.394531 1495.578125 1354.675781 C 1494.121094 1353.746094 1479.5 1366.378906 1473.578125 1366.191406 C 1460.378906 1365.78125 1451.128906 1350.019531 1441.570312 1349.152344 C 1437.109375 1348.746094 1435.03125 1362.453125 1434.859375 1365.136719 C 1431.96875 1412.765625 1428.839844 1465.8125 1413.921875 1511.34375 C 1413.621094 1512.257812 1411.160156 1523.097656 1409.679688 1523.097656 C 1394.398438 1523.097656 1398.398438 1473.703125 1398.621094 1466.917969 C 1399.578125 1437.265625 1407.449219 1391.894531 1397.210938 1363.253906 C 1394.511719 1355.695312 1380.378906 1353.636719 1379.558594 1345.742188 C 1378.71875 1337.644531 1401.351562 1334.988281 1402.03125 1330.226562 " />
<path fill-rule="evenodd" fill="rgb(81.639099%, 93.75%, 96.09375%)" fill-opacity="1" d="M 1401.53125 1314.226562 C 1402.21875 1309.46875 1383.179688 1310.089844 1383.179688 1301.183594 C 1383.179688 1280.546875 1401.898438 1284.824219 1407.890625 1272.269531 C 1415 1257.34375 1403.828125 1240.609375 1414.011719 1224.902344 C 1415.03125 1223.328125 1416.171875 1221.835938 1417.421875 1220.4375 C 1418.011719 1219.78125 1419.140625 1218.765625 1419.769531 1218.203125 C 1429.691406 1209.398438 1443.980469 1216.179688 1454.960938 1209.976562 C 1480.140625 1195.746094 1493.011719 1169.207031 1517.671875 1156.382812 C 1554.589844 1137.1875 1591.738281 1106.128906 1635.578125 1109.839844 C 1688.390625 1114.3125 1695.75 1172.339844 1731.359375 1192.347656 C 1775.300781 1217.039062 1825.789062 1180.960938 1870.441406 1204.570312 C 1886.320312 1212.964844 1885.609375 1233.722656 1898.328125 1241.945312 C 1914.070312 1252.121094 1942.398438 1254.929688 1944.21875 1280.378906 C 1946.269531 1309.085938 1886.808594 1296.921875 1879.621094 1315.757812 C 1870.339844 1340.085938 1867.480469 1439.511719 1862.441406 1441.398438 C 1859.261719 1442.589844 1856.859375 1429.105469 1856.441406 1427.410156 C 1850.671875 1403.847656 1856.328125 1346.894531 1836.441406 1329.507812 C 1824.640625 1319.195312 1806.929688 1347.238281 1798.191406 1351.367188 C 1778.921875 1360.484375 1766.539062 1340.734375 1748.890625 1338.910156 C 1739.160156 1337.902344 1732.460938 1349.03125 1722.53125 1348.429688 C 1687.738281 1346.324219 1687.570312 1338.296875 1660.519531 1326.921875 C 1658.359375 1326.011719 1654.769531 1325.617188 1652.871094 1327.273438 C 1639.28125 1339.15625 1648.628906 1456.992188 1639.578125 1463.023438 C 1639.390625 1463.148438 1633.550781 1426.15625 1633.109375 1423.886719 C 1630.058594 1408.265625 1613.398438 1332.070312 1600.628906 1324.101562 C 1591.238281 1318.238281 1571.890625 1340.554688 1559.558594 1340.554688 C 1550.210938 1340.554688 1526.449219 1321.339844 1522.140625 1324.925781 C 1512.929688 1332.59375 1514.761719 1359.929688 1508.378906 1364.179688 C 1502.230469 1368.273438 1497.789062 1340.394531 1495.078125 1338.675781 C 1493.621094 1337.746094 1479 1350.378906 1473.078125 1350.191406 C 1459.878906 1349.78125 1450.628906 1334.019531 1441.070312 1333.152344 C 1436.609375 1332.746094 1434.53125 1346.453125 1434.359375 1349.136719 C 1431.46875 1396.765625 1428.339844 1449.8125 1413.421875 1495.34375 C 1413.121094 1496.257812 1410.660156 1507.097656 1409.179688 1507.097656 C 1393.898438 1507.097656 1397.898438 1457.703125 1398.121094 1450.917969 C 1399.078125 1421.265625 1406.949219 1375.894531 1396.710938 1347.253906 C 1394.011719 1339.695312 1379.878906 1337.636719 1379.058594 1329.742188 C 1378.21875 1321.644531 1400.851562 1318.988281 1401.53125 1314.226562 " />
<g clip-path="url(#clip-0)">
<g clip-path="url(#clip-1)">
<path fill-rule="evenodd" fill="rgb(91.796875%, 98.4375%, 100%)" fill-opacity="1" d="M 1401.53125 1281.992188 C 1402.21875 1277.230469 1383.179688 1277.851562 1383.179688 1268.945312 C 1383.179688 1248.308594 1401.898438 1252.585938 1407.890625 1240.035156 C 1415 1225.109375 1403.828125 1208.375 1414.011719 1192.667969 C 1415.03125 1191.09375 1416.171875 1189.601562 1417.421875 1188.203125 C 1418.011719 1187.546875 1419.140625 1186.53125 1419.769531 1185.96875 C 1429.691406 1177.164062 1443.980469 1183.941406 1454.960938 1177.742188 C 1480.140625 1163.511719 1493.011719 1136.96875 1517.671875 1124.148438 C 1554.589844 1104.949219 1591.738281 1073.894531 1635.578125 1077.605469 C 1688.390625 1082.074219 1695.75 1140.101562 1731.359375 1160.113281 C 1775.300781 1184.800781 1825.789062 1148.726562 1870.441406 1172.335938 C 1886.320312 1180.730469 1885.609375 1201.488281 1898.328125 1209.710938 C 1914.070312 1219.886719 1942.398438 1222.695312 1944.21875 1248.144531 C 1946.269531 1276.847656 1886.808594 1264.6875 1879.621094 1283.519531 C 1870.339844 1307.847656 1867.480469 1407.277344 1862.441406 1409.160156 C 1859.261719 1410.355469 1856.859375 1396.867188 1856.441406 1395.175781 C 1850.671875 1371.613281 1856.328125 1314.65625 1836.441406 1297.269531 C 1824.640625 1286.957031 1806.929688 1315.003906 1798.191406 1319.132812 C 1778.921875 1328.25 1766.539062 1308.496094 1748.890625 1306.675781 C 1739.160156 1305.667969 1732.460938 1316.796875 1722.53125 1316.195312 C 1687.738281 1314.089844 1687.570312 1306.058594 1660.519531 1294.6875 C 1658.359375 1293.773438 1654.769531 1293.382812 1652.871094 1295.039062 C 1639.28125 1306.921875 1648.628906 1424.757812 1639.578125 1430.785156 C 1639.390625 1430.910156 1633.550781 1393.921875 1633.109375 1391.648438 C 1630.058594 1376.027344 1613.398438 1299.835938 1600.628906 1291.863281 C 1591.238281 1286.003906 1571.890625 1308.320312 1559.558594 1308.320312 C 1550.210938 1308.320312 1526.449219 1289.105469 1522.140625 1292.6875 C 1512.929688 1300.359375 1514.761719 1327.695312 1508.378906 1331.941406 C 1502.230469 1336.035156 1497.789062 1308.160156 1495.078125 1306.4375 C 1493.621094 1305.511719 1479 1318.140625 1473.078125 1317.957031 C 1459.878906 1317.546875 1450.628906 1301.78125 1441.070312 1300.914062 C 1436.609375 1300.511719 1434.53125 1314.21875 1434.359375 1316.898438 C 1431.46875 1364.53125 1428.339844 1417.578125 1413.421875 1463.109375 C 1413.121094 1464.019531 1410.660156 1474.863281 1409.179688 1474.863281 C 1393.898438 1474.863281 1397.898438 1425.46875 1398.121094 1418.683594 C 1399.078125 1389.027344 1406.949219 1343.660156 1396.710938 1315.019531 C 1394.011719 1307.460938 1379.878906 1305.402344 1379.058594 1297.507812 C 1378.21875 1289.40625 1400.851562 1286.753906 1401.53125 1281.992188 " />
</g>
</g>
<g clip-path="url(#clip-2)">
<g clip-path="url(#clip-3)">
<path fill-rule="evenodd" fill="rgb(100%, 100%, 100%)" fill-opacity="1" d="M 1365.480469 1281.8125 C 1369.011719 1294.523438 1391.421875 1282.976562 1400.128906 1300.953125 C 1400.320312 1301.351562 1403.789062 1308.386719 1404.648438 1308.316406 C 1410.75 1307.808594 1414.5 1280.257812 1425.390625 1276.449219 C 1439.929688 1271.367188 1453.621094 1294.183594 1469.929688 1288.019531 C 1476.191406 1285.652344 1482.289062 1272.269531 1487.199219 1271.402344 C 1491.21875 1270.695312 1491.828125 1283.710938 1494.359375 1282.339844 C 1505.691406 1276.207031 1509.949219 1260.253906 1524.46875 1257.730469 C 1532.609375 1256.316406 1544.679688 1273.980469 1557.21875 1272.769531 C 1569.769531 1271.554688 1578.511719 1251.875 1589.96875 1254.257812 C 1605.738281 1257.542969 1600.691406 1283.40625 1614.078125 1288.335938 C 1618.75 1290.050781 1630.539062 1261.527344 1640.820312 1260.886719 C 1652.269531 1260.171875 1679.410156 1285.21875 1699.050781 1286.757812 C 1711.839844 1287.757812 1713.691406 1275.398438 1724 1273.925781 C 1741.179688 1271.476562 1756.019531 1289.746094 1783.28125 1283.496094 C 1798.761719 1279.949219 1808.261719 1261.644531 1822.980469 1259.726562 C 1828.851562 1258.964844 1834.28125 1287.921875 1841.191406 1284.652344 C 1851.089844 1279.972656 1854.640625 1260.507812 1865.730469 1254.050781 C 1882.550781 1244.246094 1944.269531 1267.957031 1944.269531 1221.445312 C 1944.269531 1169.515625 1872.109375 1127.933594 1830.660156 1110.597656 C 1704.820312 1057.957031 1549.488281 1032.714844 1422.96875 1099.976562 C 1400.730469 1111.800781 1374.929688 1124.214844 1355.378906 1139.835938 C 1305 1180.085938 1358.03125 1254.960938 1365.480469 1281.8125 " />
</g>
</g>
</svg>