<?xml version='1.0' encoding='utf-8'?>
<svg xmlns="http://www.w3.org/2000/svg" width="2000" height="2000" viewBox="0 0 2000 2000"><defs><clipPath id="clip-36">
<path clip-rule="nonzero" d="M 154 1680 L 1052 1680 L 1052 1895 L 154 1895 Z M 154 1680 " />
</clipPath>
<clipPath id="clip-37">
<path clip-rule="evenodd" d="M 215.984375 1758.855469 C 228.035156 1756.28125 242.359375 1753.847656 251.855469 1749.878906 C 297.171875 1730.945312 285.632812 1696.859375 349.933594 1705.265625 C 370.496094 1707.953125 389.324219 1731.308594 411.375 1725.664062 C 452.957031 1715.023438 493.203125 1680.121094 536.511719 1680.085938 C 568.96875 1680.058594 583.789062 1698.667969 610.648438 1710.5625 C 634.433594 1721.09375 669.941406 1718.738281 695.269531 1718.214844 C 756.996094 1716.945312 812.636719 1660.480469 875.40625 1694.25 C 893.191406 1703.820312 896.847656 1722.414062 912.957031 1732.269531 C 928.601562 1741.839844 947.441406 1724.738281 965.535156 1728.316406 C 988.375 1732.839844 985.617188 1763.21875 1002.191406 1770.917969 C 1013.378906 1776.113281 1054.449219 1773.257812 1050.800781 1795.441406 C 1043.898438 1837.371094 979.488281 1812.324219 962.164062 1814.382812 C 941.664062 1816.820312 946.332031 1841.085938 896.234375 1829.96875 C 882.992188 1827.027344 862.773438 1788.886719 848.253906 1803.578125 C 840.28125 1811.652344 834.320312 1893.847656 822.046875 1891.867188 C 808.992188 1889.761719 812.367188 1809.035156 799.824219 1810.574219 C 778.136719 1813.234375 786.164062 1875.949219 763.988281 1877.117188 C 744.007812 1878.171875 754.226562 1819.8125 735.222656 1816.511719 C 712.558594 1812.570312 708.355469 1842.0625 687.320312 1843.273438 C 665.046875 1844.554688 661.957031 1817.640625 641.851562 1817.902344 C 611.125 1818.300781 597.707031 1847.886719 568.449219 1846.996094 C 545.035156 1846.28125 540.074219 1811.613281 517.515625 1812.332031 C 501.136719 1812.855469 493.878906 1928.429688 474.972656 1926.050781 C 454.925781 1923.523438 472.171875 1817.140625 441.722656 1811.628906 C 400.984375 1804.25 408.785156 1843.917969 386.941406 1850.878906 C 364.53125 1858.023438 339.015625 1813.402344 326.421875 1818.75 C 306.609375 1827.160156 313.820312 1921.011719 225.203125 1900.761719 C 183.6875 1891.273438 222.574219 1823.203125 203.144531 1803.242188 C 195.25 1795.132812 151.207031 1777.628906 153.933594 1770.796875 C 162.691406 1748.832031 199.660156 1762.339844 215.984375 1758.855469 Z M 215.984375 1758.855469 " />
</clipPath>
<clipPath id="clip-38">
<path clip-rule="nonzero" d="M 153 1680 L 1050 1680 L 1050 1817 L 153 1817 Z M 153 1680 " />
</clipPath>
<clipPath id="clip-39">
<path clip-rule="evenodd" d="M 215.984375 1758.855469 C 228.035156 1756.28125 242.359375 1753.847656 251.855469 1749.878906 C 297.171875 1730.945312 285.632812 1696.859375 349.933594 1705.265625 C 370.496094 1707.953125 389.324219 1731.308594 411.375 1725.664062 C 452.957031 1715.023438 493.203125 1680.121094 536.511719 1680.085938 C 568.96875 1680.058594 583.789062 1698.667969 610.648438 1710.5625 C 634.433594 1721.09375 669.941406 1718.738281 695.269531 1718.214844 C 756.996094 1716.945312 812.636719 1660.480469 875.40625 1694.25 C 893.191406 1703.820312 896.847656 1722.414062 912.957031 1732.269531 C 928.601562 1741.839844 947.441406 1724.738281 965.535156 1728.316406 C 988.375 1732.839844 985.617188 1763.21875 1002.191406 1770.917969 C 1013.378906 1776.113281 1054.449219 1773.257812 1050.800781 1795.441406 C 1043.898438 1837.371094 979.488281 1812.324219 962.164062 1814.382812 C 941.664062 1816.820312 946.332031 1841.085938 896.234375 1829.96875 C 882.992188 1827.027344 862.773438 1788.886719 848.253906 1803.578125 C 840.28125 1811.652344 834.320312 1893.847656 822.046875 1891.867188 C 808.992188 1889.761719 812.367188 1809.035156 799.824219 1810.574219 C 778.136719 1813.234375 786.164062 1875.949219 763.988281 1877.117188 C 744.007812 1878.171875 754.226562 1819.8125 735.222656 1816.511719 C 712.558594 1812.570312 708.355469 1842.0625 687.320312 1843.273438 C 665.046875 1844.554688 661.957031 1817.640625 641.851562 1817.902344 C 611.125 1818.300781 597.707031 1847.886719 568.449219 1846.996094 C 545.035156 1846.28125 540.074219 1811.613281 517.515625 1812.332031 C 501.136719 1812.855469 493.878906 1928.429688 474.972656 1926.050781 C 454.925781 1923.523438 472.171875 1817.140625 441.722656 1811.628906 C 400.984375 1804.25 408.785156 1843.917969 386.941406 1850.878906 C 364.53125 1858.023438 339.015625 1813.402344 326.421875 1818.75 C 306.609375 1827.160156 313.820312 1921.011719 225.203125 1900.761719 C 183.6875 1891.273438 222.574219 1823.203125 203.144531 1803.242188 C 195.25 1795.132812 151.207031 1777.628906 153.933594 1770.796875 C 162.691406 1748.832031 199.660156 1762.339844 215.984375 1758.855469 Z M 215.984375 1758.855469 " />
</clipPath>
</defs><path fill-rule="evenodd" fill="rgb(16.697693%, 27.293396%, 31.396484%)" fill-opacity="1" d="M 215.984375 1780.855469 C 228.035156 1778.28125 242.359375 1775.847656 251.855469 1771.878906 C 297.171875 1752.945312 285.632812 1718.859375 349.933594 1727.265625 C 370.496094 1729.953125 389.324219 1753.308594 411.375 1747.664062 C 452.957031 1737.023438 493.203125 1702.121094 536.511719 1702.085938 C 568.96875 1702.058594 583.789062 1720.667969 610.648438 1732.5625 C 634.433594 1743.09375 669.941406 1740.738281 695.269531 1740.214844 C 756.996094 1738.945312 812.636719 1682.480469 875.40625 1716.25 C 893.191406 1725.820312 896.847656 1744.414062 912.957031 1754.269531 C 928.601562 1763.839844 947.441406 1746.738281 965.535156 1750.316406 C 988.375 1754.839844 985.617188 1785.21875 1002.191406 1792.917969 C 1013.378906 1798.113281 1054.449219 1795.257812 1050.800781 1817.441406 C 1043.898438 1859.371094 979.488281 1834.324219 962.164062 1836.382812 C 941.664062 1838.820312 946.332031 1863.085938 896.234375 1851.96875 C 882.992188 1849.027344 862.773438 1810.886719 848.253906 1825.578125 C 840.28125 1833.652344 834.320312 1915.847656 822.046875 1913.867188 C 808.992188 1911.761719 812.367188 1831.035156 799.824219 1832.574219 C 778.136719 1835.234375 786.164062 1897.949219 763.988281 1899.117188 C 744.007812 1900.171875 754.226562 1841.8125 735.222656 1838.511719 C 712.558594 1834.570312 708.355469 1864.0625 687.320312 1865.273438 C 665.046875 1866.554688 661.957031 1839.640625 641.851562 1839.902344 C 611.125 1840.300781 597.707031 1869.886719 568.449219 1868.996094 C 545.035156 1868.28125 540.074219 1833.613281 517.515625 1834.332031 C 501.136719 1834.855469 493.878906 1950.429688 474.972656 1948.050781 C 454.925781 1945.523438 472.171875 1839.140625 441.722656 1833.628906 C 400.984375 1826.25 408.785156 1865.917969 386.941406 1872.878906 C 364.53125 1880.023438 339.015625 1835.402344 326.421875 1840.75 C 306.609375 1849.160156 313.820312 1943.011719 225.203125 1922.761719 C 183.6875 1913.273438 222.574219 1845.203125 203.144531 1825.242188 C 195.25 1817.132812 151.207031 1799.628906 153.933594 1792.796875 C 162.691406 1770.832031 199.660156 1784.339844 215.984375 1780.855469 " />
<path fill-rule="evenodd" fill="rgb(81.639099%, 93.75%, 96.09375%)" fill-opacity="1" d="M 215.984375 1758.855469 C 228.035156 1756.28125 242.359375 1753.847656 251.855469 1749.878906 C 297.171875 1730.945312 285.632812 1696.859375 349.933594 1705.265625 C 370.496094 1707.953125 389.324219 1731.308594 411.375 1725.664062 C 452.957031 1715.023438 493.203125 1680.121094 536.511719 1680.085938 C 568.96875 1680.058594 583.789062 1698.667969 610.648438 1710.5625 C 634.433594 1721.09375 669.941406 1718.738281 695.269531 1718.214844 C 756.996094 1716.945312 812.636719 1660.480469 875.40625 1694.25 C 893.191406 1703.820312 896.847656 1722.414062 912.957031 1732.269531 C 928.601562 1741.839844 947.441406 1724.738281 965.535156 1728.316406 C 988.375 1732.839844 985.617188 1763.21875 1002.191406 1770.917969 C 1013.378906 1776.113281 1054.449219 1773.257812 1050.800781 1795.441406 C 1043.898438 1837.371094 979.488281 1812.324219 962.164062 1814.382812 C 941.664062 1816.820312 946.332031 1841.085938 896.234375 1829.96875 C 882.992188 1827.027344 862.773438 1788.886719 848.253906 1803.578125 C 840.28125 1811.652344 834.320312 1893.847656 822.046875 1891.867188 C 808.992188 1889.761719 812.367188 1809.035156 799.824219 1810.574219 C 778.136719 1813.234375 786.164062 1875.949219 763.988281 1877.117188 C 744.007812 1878.171875 754.226562 1819.8125 735.222656 1816.511719 C 712.558594 1812.570312 708.355469 1842.0625 687.320312 1843.273438 C 665.046875 1844.554688 661.957031 1817.640625 641.851562 1817.902344 C 611.125 1818.300781 597.707031 1847.886719 568.449219 1846.996094 C 545.035156 1846.28125 540.074219 1811.613281 517.515625 1812.332031 C 501.136719 1812.855469 493.878906 1928.429688 474.972656 1926.050781 C 454.925781 1923.523438 472.171875 1817.140625 441.722656 1811.628906 C 400.984375 1804.25 408.785156 1843.917969 386.941406 1850.878906 C 364.53125 1858.023438 339.015625 1813.402344 326.421875 1818.75 C 306.609375 1827.160156 313.820312 1921.011719 225.203125 1900.761719 C 183.6875 1891.273438 222.574219 1823.203125 203.144531 1803.242188 C 195.25 1795.132812 151.207031 1777.628906 153.933594 1770.796875 C 162.691406 1748.832031 199.660156 1762.339844 215.984375 1758.855469 " />
<g clip-path="url(#clip-36)">
<g clip-path="url(#clip-37)">
<path fill-rule="evenodd" fill="rgb(91.796875%, 98.4375%, 100%)" fill-opacity="1" d="M 216.949219 1727.070312 C 229.003906 1724.496094 243.328125 1722.0625 252.820312 1718.097656 C 298.136719 1699.160156 286.597656 1665.074219 350.898438 1673.480469 C 371.464844 1676.167969 390.292969 1699.523438 412.34375 1693.882812 C 453.925781 1683.242188 494.171875 1648.335938 537.480469 1648.300781 C 569.9375 1648.273438 584.757812 1666.882812 611.613281 1678.777344 C 635.398438 1689.308594 670.90625 1686.953125 696.234375 1686.429688 C 757.964844 1685.160156 813.605469 1628.695312 876.375 1662.46875 C 894.15625 1672.035156 897.816406 1690.628906 913.925781 1700.484375 C 929.566406 1710.054688 948.40625 1692.953125 966.503906 1696.53125 C 989.34375 1701.054688 986.585938 1731.433594 1003.160156 1739.132812 C 1014.351562 1744.328125 1055.421875 1741.476562 1051.761719 1763.65625 C 1044.859375 1805.585938 980.457031 1780.539062 963.132812 1782.597656 C 942.632812 1785.035156 947.296875 1809.300781 897.203125 1798.183594 C 883.957031 1795.242188 863.738281 1757.101562 849.222656 1771.796875 C 841.246094 1779.867188 835.285156 1862.0625 823.015625 1860.082031 C 809.957031 1857.976562 813.335938 1777.25 800.789062 1778.789062 C 779.105469 1781.449219 787.132812 1844.164062 764.953125 1845.335938 C 744.972656 1846.386719 755.191406 1788.027344 736.191406 1784.726562 C 713.523438 1780.785156 709.320312 1810.277344 688.285156 1811.488281 C 666.015625 1812.769531 662.921875 1785.855469 642.816406 1786.117188 C 612.09375 1786.515625 598.675781 1816.101562 569.414062 1815.210938 C 546.003906 1814.496094 541.039062 1779.828125 518.484375 1780.550781 C 502.101562 1781.070312 494.847656 1896.644531 475.941406 1894.265625 C 455.894531 1891.742188 473.140625 1785.355469 442.691406 1779.84375 C 401.949219 1772.464844 409.753906 1812.132812 387.910156 1819.097656 C 365.5 1826.238281 339.980469 1781.617188 327.386719 1786.964844 C 307.578125 1795.378906 314.789062 1889.226562 226.171875 1868.976562 C 184.652344 1859.488281 223.542969 1791.417969 204.109375 1771.457031 C 196.21875 1763.347656 152.175781 1745.84375 154.898438 1739.011719 C 163.660156 1717.046875 200.628906 1730.554688 216.949219 1727.070312 " />
</g>
</g>
<g clip-path="url(#clip-38)">
<g clip-path="url(#clip-39)">
<path fill-rule="evenodd" fill="rgb(100%, 100%, 100%)" fill-opacity="1" d="M 149.820312 1789.425781 C 168.046875 1796.890625 179.6875 1797.097656 195.941406 1808.320312 C 209.261719 1817.511719 225.609375 1818.292969 247.019531 1815.328125 C 274.542969 1811.519531 287.773438 1775.785156 309.34375 1764.617188 C 340.695312 1748.378906 353.585938 1786.289062 380.023438 1785.496094 C 404.828125 1784.75 419.671875 1750.085938 448.386719 1750.960938 C 472.351562 1751.6875 476.054688 1800.523438 479.929688 1801.371094 C 487.972656 1803.132812 512.730469 1755.808594 534.117188 1758.40625 C 551.019531 1760.460938 558.855469 1789.546875 576.5625 1793.261719 C 594.652344 1797.058594 616.777344 1777.738281 633.800781 1774.695312 C 654.1875 1771.054688 657.199219 1784.671875 675.628906 1784.808594 C 698.074219 1784.972656 720.5 1768.347656 742.511719 1767.796875 C 742.6875 1767.792969 742.863281 1767.796875 743.039062 1767.8125 C 753.703125 1768.804688 756.292969 1786.414062 767.824219 1787.613281 C 782.625 1789.148438 797.925781 1755.203125 815.722656 1750.453125 C 823.320312 1748.425781 815.34375 1790.054688 825.175781 1785.988281 C 833.292969 1782.636719 837.589844 1767.527344 845.285156 1762.191406 C 849.667969 1759.148438 862.488281 1756.3125 868.058594 1758.042969 C 883.464844 1762.824219 895.722656 1776.453125 913.640625 1779.84375 C 936.019531 1784.074219 953.050781 1775.417969 974.503906 1773.695312 C 991.332031 1772.347656 1051.761719 1787.378906 1049.03125 1754.605469 C 1044.851562 1704.265625 900.238281 1687.515625 859.4375 1677.816406 C 788.644531 1660.980469 718.855469 1638.769531 646.554688 1629.042969 C 585.5 1620.828125 513.316406 1625.710938 452.890625 1637.460938 C 434.421875 1641.050781 416.863281 1649.019531 398.210938 1651.683594 C 373.042969 1655.28125 348.355469 1655.585938 322.957031 1659.917969 C 287.984375 1665.878906 122.898438 1696.984375 147.722656 1758.542969 C 159.132812 1786.832031 126.636719 1788.71875 149.820312 1789.425781 " />
</g>
</g>
</svg>