<?xml version='1.0' encoding='utf-8'?>
<svg xmlns="http://www.w3.org/2000/svg" width="2000" height="2000" viewBox="0 0 2000 2000"><defs><clipPath id="clip-4">
<path clip-rule="nonzero" d="M 1284 1565 L 1916 1565 L 1916 1935 L 1284 1935 Z M 1284 1565 " />
</clipPath>
<clipPath id="clip-5">
<path clip-rule="evenodd" d="M 1315.828125 1722.339844 C 1319.769531 1740.132812 1313.570312 1781.308594 1320.191406 1814.390625 C 1325.109375 1838.933594 1365.300781 1741.007812 1371.671875 1731.753906 C 1375.191406 1726.636719 1389.070312 1711.710938 1390.058594 1712.699219 C 1409.890625 1732.503906 1391.808594 1901.140625 1408.441406 1950.976562 C 1408.738281 1951.875 1412.960938 1964.738281 1413.039062 1964.75 C 1456.941406 1969.621094 1440.890625 1759.894531 1492.558594 1723.027344 C 1495.679688 1720.804688 1505.519531 1759.222656 1506.121094 1761.824219 C 1517.339844 1810.375 1546.480469 1738.980469 1565.871094 1737.492188 C 1568.871094 1737.261719 1570.289062 1740.3125 1571.390625 1742.3125 C 1573.238281 1745.699219 1575.679688 1748.8125 1577.589844 1752.183594 C 1588.820312 1771.972656 1597.488281 1742.058594 1610.921875 1753.101562 C 1619.839844 1760.441406 1620.03125 1778.449219 1631.601562 1783.402344 C 1634.238281 1784.53125 1634.789062 1784.503906 1638.488281 1783.859375 C 1661.351562 1779.890625 1665.988281 1741.871094 1680.78125 1738.179688 C 1701.441406 1733.019531 1734.898438 1819.199219 1739.160156 1818.0625 C 1745.660156 1816.332031 1747.691406 1806.554688 1749.730469 1801.308594 C 1754.488281 1789.082031 1761.820312 1769.351562 1768.109375 1759.300781 C 1773.769531 1750.253906 1787.988281 1774.476562 1797.988281 1770.777344 C 1812.160156 1765.535156 1848.890625 1746.980469 1861.878906 1763.660156 C 1877.730469 1784.019531 1898.078125 1978.464844 1909.679688 1946.84375 C 1921.828125 1913.757812 1916.628906 1577.8125 1865.101562 1565.554688 C 1848.519531 1561.613281 1838.859375 1606.625 1820.28125 1611.925781 C 1779.210938 1623.648438 1756.488281 1568.996094 1717.089844 1568.996094 C 1646.089844 1568.996094 1608.671875 1630.683594 1545.648438 1634.878906 C 1512.53125 1637.085938 1486.820312 1611.183594 1454.640625 1608.710938 C 1415.289062 1605.6875 1386.390625 1634.941406 1342.710938 1623.632812 C 1334.691406 1621.554688 1311.109375 1602.605469 1303.648438 1605.269531 C 1268.710938 1617.730469 1291.761719 1688.613281 1296.519531 1707.648438 C 1298.308594 1714.78125 1314.078125 1714.445312 1315.828125 1722.339844 Z M 1315.828125 1722.339844 " />
</clipPath>
<clipPath id="clip-6">
<path clip-rule="nonzero" d="M 1284 1565 L 1916 1565 L 1916 1772 L 1284 1772 Z M 1284 1565 " />
</clipPath>
<clipPath id="clip-7">
<path clip-rule="evenodd" d="M 1315.828125 1722.339844 C 1319.769531 1740.132812 1313.570312 1781.308594 1320.191406 1814.390625 C 1325.109375 1838.933594 1365.300781 1741.007812 1371.671875 1731.753906 C 1375.191406 1726.636719 1389.070312 1711.710938 1390.058594 1712.699219 C 1409.890625 1732.503906 1391.808594 1901.140625 1408.441406 1950.976562 C 1408.738281 1951.875 1412.960938 1964.738281 1413.039062 1964.75 C 1456.941406 1969.621094 1440.890625 1759.894531 1492.558594 1723.027344 C 1495.679688 1720.804688 1505.519531 1759.222656 1506.121094 1761.824219 C 1517.339844 1810.375 1546.480469 1738.980469 1565.871094 1737.492188 C 1568.871094 1737.261719 1570.289062 1740.3125 1571.390625 1742.3125 C 1573.238281 1745.699219 1575.679688 1748.8125 1577.589844 1752.183594 C 1588.820312 1771.972656 1597.488281 1742.058594 1610.921875 1753.101562 C 1619.839844 1760.441406 1620.03125 1778.449219 1631.601562 1783.402344 C 1634.238281 1784.53125 1634.789062 1784.503906 1638.488281 1783.859375 C 1661.351562 1779.890625 1665.988281 1741.871094 1680.78125 1738.179688 C 1701.441406 1733.019531 1734.898438 1819.199219 1739.160156 1818.0625 C 1745.660156 1816.332031 1747.691406 1806.554688 1749.730469 1801.308594 C 1754.488281 1789.082031 1761.820312 1769.351562 1768.109375 1759.300781 C 1773.769531 1750.253906 1787.988281 1774.476562 1797.988281 1770.777344 C 1812.160156 1765.535156 1848.890625 1746.980469 1861.878906 1763.660156 C 1877.730469 1784.019531 1898.078125 1978.464844 1909.679688 1946.84375 C 1921.828125 1913.757812 1916.628906 1577.8125 1865.101562 1565.554688 C 1848.519531 1561.613281 1838.859375 1606.625 1820.28125 1611.925781 C 1779.210938 1623.648438 1756.488281 1568.996094 1717.089844 1568.996094 C 1646.089844 1568.996094 1608.671875 1630.683594 1545.648438 1634.878906 C 1512.53125 1637.085938 1486.820312 1611.183594 1454.640625 1608.710938 C 1415.289062 1605.6875 1386.390625 1634.941406 1342.710938 1623.632812 C 1334.691406 1621.554688 1311.109375 1602.605469 1303.648438 1605.269531 C 1268.710938 1617.730469 1291.761719 1688.613281 1296.519531 1707.648438 C 1298.308594 1714.78125 1314.078125 1714.445312 1315.828125 1722.339844 Z M 1315.828125 1722.339844 " />
</clipPath>
</defs><path fill-rule="evenodd" fill="rgb(16.697693%, 27.293396%, 31.396484%)" fill-opacity="1" d="M 1315.828125 1743.339844 C 1319.769531 1761.132812 1313.570312 1802.308594 1320.191406 1835.390625 C 1325.109375 1859.933594 1365.300781 1762.007812 1371.671875 1752.753906 C 1375.191406 1747.636719 1389.070312 1732.710938 1390.058594 1733.699219 C 1409.890625 1753.503906 1391.808594 1922.140625 1408.441406 1971.976562 C 1408.738281 1972.875 1412.960938 1985.738281 1413.039062 1985.75 C 1456.941406 1990.621094 1440.890625 1780.894531 1492.558594 1744.027344 C 1495.679688 1741.804688 1505.519531 1780.222656 1506.121094 1782.824219 C 1517.339844 1831.375 1546.480469 1759.980469 1565.871094 1758.492188 C 1568.871094 1758.261719 1570.289062 1761.3125 1571.390625 1763.3125 C 1573.238281 1766.699219 1575.679688 1769.8125 1577.589844 1773.183594 C 1588.820312 1792.972656 1597.488281 1763.058594 1610.921875 1774.101562 C 1619.839844 1781.441406 1620.03125 1799.449219 1631.601562 1804.402344 C 1634.238281 1805.53125 1634.789062 1805.503906 1638.488281 1804.859375 C 1661.351562 1800.890625 1665.988281 1762.871094 1680.78125 1759.179688 C 1701.441406 1754.019531 1734.898438 1840.199219 1739.160156 1839.0625 C 1745.660156 1837.332031 1747.691406 1827.554688 1749.730469 1822.308594 C 1754.488281 1810.082031 1761.820312 1790.351562 1768.109375 1780.300781 C 1773.769531 1771.253906 1787.988281 1795.476562 1797.988281 1791.777344 C 1812.160156 1786.535156 1848.890625 1767.980469 1861.878906 1784.660156 C 1877.730469 1805.019531 1898.078125 1999.464844 1909.679688 1967.84375 C 1921.828125 1934.757812 1916.628906 1598.8125 1865.101562 1586.554688 C 1848.519531 1582.613281 1838.859375 1627.625 1820.28125 1632.925781 C 1779.210938 1644.648438 1756.488281 1589.996094 1717.089844 1589.996094 C 1646.089844 1589.996094 1608.671875 1651.683594 1545.648438 1655.878906 C 1512.53125 1658.085938 1486.820312 1632.183594 1454.640625 1629.710938 C 1415.289062 1626.6875 1386.390625 1655.941406 1342.710938 1644.632812 C 1334.691406 1642.554688 1311.109375 1623.605469 1303.648438 1626.269531 C 1268.710938 1638.730469 1291.761719 1709.613281 1296.519531 1728.648438 C 1298.308594 1735.78125 1314.078125 1735.445312 1315.828125 1743.339844 " />
<path fill-rule="evenodd" fill="rgb(81.639099%, 93.75%, 96.09375%)" fill-opacity="1" d="M 1315.828125 1722.339844 C 1319.769531 1740.132812 1313.570312 1781.308594 1320.191406 1814.390625 C 1325.109375 1838.933594 1365.300781 1741.007812 1371.671875 1731.753906 C 1375.191406 1726.636719 1389.070312 1711.710938 1390.058594 1712.699219 C 1409.890625 1732.503906 1391.808594 1901.140625 1408.441406 1950.976562 C 1408.738281 1951.875 1412.960938 1964.738281 1413.039062 1964.75 C 1456.941406 1969.621094 1440.890625 1759.894531 1492.558594 1723.027344 C 1495.679688 1720.804688 1505.519531 1759.222656 1506.121094 1761.824219 C 1517.339844 1810.375 1546.480469 1738.980469 1565.871094 1737.492188 C 1568.871094 1737.261719 1570.289062 1740.3125 1571.390625 1742.3125 C 1573.238281 1745.699219 1575.679688 1748.8125 1577.589844 1752.183594 C 1588.820312 1771.972656 1597.488281 1742.058594 1610.921875 1753.101562 C 1619.839844 1760.441406 1620.03125 1778.449219 1631.601562 1783.402344 C 1634.238281 1784.53125 1634.789062 1784.503906 1638.488281 1783.859375 C 1661.351562 1779.890625 1665.988281 1741.871094 1680.78125 1738.179688 C 1701.441406 1733.019531 1734.898438 1819.199219 1739.160156 1818.0625 C 1745.660156 1816.332031 1747.691406 1806.554688 1749.730469 1801.308594 C 1754.488281 1789.082031 1761.820312 1769.351562 1768.109375 1759.300781 C 1773.769531 1750.253906 1787.988281 1774.476562 1797.988281 1770.777344 C 1812.160156 1765.535156 1848.890625 1746.980469 1861.878906 1763.660156 C 1877.730469 1784.019531 1898.078125 1978.464844 1909.679688 1946.84375 C 1921.828125 1913.757812 1916.628906 1577.8125 1865.101562 1565.554688 C 1848.519531 1561.613281 1838.859375 1606.625 1820.28125 1611.925781 C 1779.210938 1623.648438 1756.488281 1568.996094 1717.089844 1568.996094 C 1646.089844 1568.996094 1608.671875 1630.683594 1545.648438 1634.878906 C 1512.53125 1637.085938 1486.820312 1611.183594 1454.640625 1608.710938 C 1415.289062 1605.6875 1386.390625 1634.941406 1342.710938 1623.632812 C 1334.691406 1621.554688 1311.109375 1602.605469 1303.648438 1605.269531 C 1268.710938 1617.730469 1291.761719 1688.613281 1296.519531 1707.648438 C 1298.308594 1714.78125 1314.078125 1714.445312 1315.828125 1722.339844 " />
<g clip-path="url(#clip-4)">
<g clip-path="url(#clip-5)">
<path fill-rule="evenodd" fill="rgb(91.796875%, 98.4375%, 100%)" fill-opacity="1" d="M 1315.828125 1691.890625 C 1321.75 1708.839844 1313.570312 1750.859375 1320.191406 1783.941406 C 1325.109375 1808.484375 1365.300781 1710.558594 1371.671875 1701.304688 C 1375.191406 1696.1875 1389.070312 1681.261719 1390.058594 1682.25 C 1409.890625 1702.054688 1391.808594 1870.691406 1408.441406 1920.527344 C 1408.738281 1921.425781 1412.960938 1934.289062 1413.039062 1934.300781 C 1456.941406 1939.171875 1440.890625 1729.445312 1492.558594 1692.578125 C 1495.679688 1690.355469 1505.519531 1728.773438 1506.121094 1731.375 C 1517.339844 1779.925781 1546.480469 1708.53125 1565.871094 1707.042969 C 1568.871094 1706.8125 1570.289062 1709.863281 1571.390625 1711.863281 C 1573.238281 1715.25 1575.679688 1718.363281 1577.589844 1721.734375 C 1588.820312 1741.523438 1597.488281 1711.609375 1610.921875 1722.652344 C 1619.839844 1729.992188 1620.03125 1748 1631.601562 1752.953125 C 1634.238281 1754.085938 1634.789062 1754.054688 1638.488281 1753.410156 C 1661.351562 1749.441406 1665.988281 1711.425781 1680.78125 1707.730469 C 1701.441406 1702.570312 1734.898438 1788.75 1739.160156 1787.613281 C 1745.660156 1785.882812 1747.691406 1776.105469 1749.730469 1770.859375 C 1754.488281 1758.632812 1761.820312 1738.902344 1768.109375 1728.851562 C 1773.769531 1719.804688 1787.988281 1744.027344 1797.988281 1740.328125 C 1812.160156 1735.085938 1848.890625 1716.53125 1861.878906 1733.210938 C 1877.730469 1753.570312 1898.078125 1948.015625 1909.679688 1916.394531 C 1921.828125 1883.308594 1916.628906 1547.363281 1865.101562 1535.105469 C 1848.519531 1531.164062 1838.859375 1576.175781 1820.28125 1581.476562 C 1779.210938 1593.199219 1756.488281 1538.550781 1717.089844 1538.550781 C 1646.089844 1538.550781 1608.671875 1600.234375 1545.648438 1604.429688 C 1512.53125 1606.636719 1486.820312 1580.734375 1454.640625 1578.261719 C 1415.289062 1575.238281 1386.390625 1604.492188 1342.710938 1593.183594 C 1334.691406 1591.105469 1311.109375 1572.15625 1303.648438 1574.820312 C 1268.710938 1587.28125 1279.890625 1663.214844 1284.660156 1682.25 C 1286.441406 1689.382812 1312.238281 1681.625 1315.828125 1691.890625 " />
</g>
</g>
<g clip-path="url(#clip-6)">
<g clip-path="url(#clip-7)">
<path fill-rule="evenodd" fill="rgb(100%, 100%, 100%)" fill-opacity="1" d="M 1272.648438 1644.273438 C 1273.75 1656.617188 1287.679688 1656.839844 1302.371094 1666.617188 C 1307.109375 1669.78125 1316.191406 1669.507812 1319.28125 1674.898438 C 1327.621094 1689.476562 1323.828125 1708.632812 1334.578125 1722.550781 C 1334.890625 1722.964844 1336.230469 1724.925781 1336.929688 1724.707031 C 1341.328125 1723.335938 1380.550781 1659.90625 1403.039062 1658.070312 C 1407.878906 1657.675781 1434.621094 1740.992188 1440.371094 1741.332031 C 1451.71875 1741.996094 1497.101562 1672.808594 1505.601562 1674.695312 C 1506.429688 1674.878906 1518.878906 1709.046875 1527.101562 1711.78125 C 1541.960938 1716.730469 1558.058594 1684.359375 1573.191406 1686.136719 C 1582.738281 1687.261719 1579.890625 1704.039062 1587.410156 1706.667969 C 1596.019531 1709.675781 1606.878906 1694.910156 1616.859375 1702.15625 C 1623.78125 1707.183594 1621.890625 1725.214844 1630.941406 1728.070312 C 1631.621094 1728.285156 1631.890625 1727.910156 1632.359375 1727.464844 C 1645.96875 1714.546875 1670.28125 1689.34375 1690.980469 1692.195312 C 1713.238281 1695.261719 1722.558594 1739.589844 1731.890625 1740.253906 C 1732.648438 1740.308594 1732.871094 1740.269531 1733.300781 1739.648438 C 1740.359375 1729.472656 1746.128906 1720.976562 1758.839844 1716.964844 C 1780.191406 1710.230469 1788.828125 1727.316406 1810.53125 1722.753906 C 1822.460938 1720.242188 1841.050781 1705.183594 1853.859375 1708.214844 C 1877.121094 1713.71875 1885.25 1775.324219 1897.191406 1771.351562 C 1904.949219 1768.765625 1909.570312 1749.542969 1913.628906 1743.28125 C 1933.628906 1712.460938 1942.539062 1667.058594 1942.539062 1630.945312 C 1942.539062 1555.71875 1865.699219 1534.359375 1803.390625 1531.195312 C 1751.328125 1528.550781 1698.578125 1531.03125 1647.660156 1542.503906 C 1589.398438 1555.621094 1537.378906 1576.398438 1477.371094 1585.648438 C 1416.808594 1594.980469 1355.53125 1571.484375 1294.890625 1583.089844 C 1259.808594 1589.800781 1271.398438 1630.351562 1272.648438 1644.273438 " />
</g>
</g>
</svg>