<?xml version='1.0' encoding='utf-8'?>
<svg xmlns="http://www.w3.org/2000/svg" width="2000" height="2000" viewBox="0 0 2000 2000"><defs><clipPath id="clip-16">
<path clip-rule="nonzero" d="M 1056 86 L 1883 86 L 1883 412 L 1056 412 Z M 1056 86 " />
</clipPath>
<clipPath id="clip-17">
<path clip-rule="evenodd" d="M 1063.039062 173.359375 C 1066.449219 201.648438 1068.578125 320.191406 1077.390625 323.328125 C 1101.171875 331.808594 1085.660156 238.660156 1091.988281 234.710938 C 1112.261719 222.058594 1127.359375 242.050781 1143.761719 247.640625 C 1176.230469 258.71875 1199.738281 219.519531 1229.890625 249.640625 C 1246.640625 266.359375 1249.398438 316.550781 1277.78125 318.039062 C 1312.460938 319.859375 1295.589844 270.039062 1310.730469 253.75 C 1329.761719 233.28125 1395.640625 233.949219 1421.109375 240.589844 C 1491.789062 259.011719 1486.371094 428.859375 1530.890625 438.75 C 1535.589844 439.789062 1537.941406 419.539062 1538.539062 416.890625 C 1543.488281 395.019531 1528.308594 269.660156 1565.601562 262.210938 C 1568.839844 261.570312 1578.660156 299.929688 1586.78125 303.351562 C 1605.910156 311.398438 1606.230469 269.269531 1618.671875 269.269531 C 1629.460938 269.269531 1637.589844 295.289062 1648.210938 297.589844 C 1661.871094 300.558594 1670.078125 276.058594 1681.269531 271.261719 C 1696.121094 264.910156 1716.539062 278.96875 1731.628906 279.488281 C 1745.46875 279.96875 1758.71875 272.199219 1772.578125 272.199219 C 1787.109375 272.199219 1781.050781 303.820312 1798 301.46875 C 1808.871094 299.960938 1815.109375 268.960938 1824.710938 272.558594 C 1839.101562 277.949219 1856.929688 457.929688 1877.539062 367.871094 C 1882.679688 345.429688 1887.648438 148.691406 1874.601562 133.28125 C 1858.328125 114.070312 1780.980469 107.730469 1755.988281 103.308594 C 1624.761719 80.078125 1487.25 90.621094 1354.738281 90.621094 C 1330.378906 90.621094 1305.910156 90.710938 1281.550781 89.910156 C 1230.261719 88.238281 1179.910156 83.808594 1128.820312 90.851562 C 1082.378906 97.25 1060.46875 104.019531 1056.921875 153.609375 C 1056.191406 163.761719 1062.210938 166.519531 1063.039062 173.359375 Z M 1063.039062 173.359375 " />
</clipPath>
<clipPath id="clip-18">
<path clip-rule="nonzero" d="M 1056 86 L 1883 86 L 1883 252 L 1056 252 Z M 1056 86 " />
</clipPath>
<clipPath id="clip-19">
<path clip-rule="evenodd" d="M 1063.039062 173.359375 C 1066.449219 201.648438 1068.578125 320.191406 1077.390625 323.328125 C 1101.171875 331.808594 1085.660156 238.660156 1091.988281 234.710938 C 1112.261719 222.058594 1127.359375 242.050781 1143.761719 247.640625 C 1176.230469 258.71875 1199.738281 219.519531 1229.890625 249.640625 C 1246.640625 266.359375 1249.398438 316.550781 1277.78125 318.039062 C 1312.460938 319.859375 1295.589844 270.039062 1310.730469 253.75 C 1329.761719 233.28125 1395.640625 233.949219 1421.109375 240.589844 C 1491.789062 259.011719 1486.371094 428.859375 1530.890625 438.75 C 1535.589844 439.789062 1537.941406 419.539062 1538.539062 416.890625 C 1543.488281 395.019531 1528.308594 269.660156 1565.601562 262.210938 C 1568.839844 261.570312 1578.660156 299.929688 1586.78125 303.351562 C 1605.910156 311.398438 1606.230469 269.269531 1618.671875 269.269531 C 1629.460938 269.269531 1637.589844 295.289062 1648.210938 297.589844 C 1661.871094 300.558594 1670.078125 276.058594 1681.269531 271.261719 C 1696.121094 264.910156 1716.539062 278.96875 1731.628906 279.488281 C 1745.46875 279.96875 1758.71875 272.199219 1772.578125 272.199219 C 1787.109375 272.199219 1781.050781 303.820312 1798 301.46875 C 1808.871094 299.960938 1815.109375 268.960938 1824.710938 272.558594 C 1839.101562 277.949219 1856.929688 457.929688 1877.539062 367.871094 C 1882.679688 345.429688 1887.648438 148.691406 1874.601562 133.28125 C 1858.328125 114.070312 1780.980469 107.730469 1755.988281 103.308594 C 1624.761719 80.078125 1487.25 90.621094 1354.738281 90.621094 C 1330.378906 90.621094 1305.910156 90.710938 1281.550781 89.910156 C 1230.261719 88.238281 1179.910156 83.808594 1128.820312 90.851562 C 1082.378906 97.25 1060.46875 104.019531 1056.921875 153.609375 C 1056.191406 163.761719 1062.210938 166.519531 1063.039062 173.359375 Z M 1063.039062 173.359375 " />
</clipPath>
</defs><path fill-rule="evenodd" fill="rgb(16.697693%, 27.293396%, 31.396484%)" fill-opacity="1" d="M 1063.039062 194.359375 C 1066.449219 222.648438 1068.578125 341.191406 1077.390625 344.328125 C 1101.171875 352.808594 1085.660156 259.660156 1091.988281 255.710938 C 1112.261719 243.058594 1127.359375 263.050781 1143.761719 268.640625 C 1176.230469 279.71875 1199.738281 240.519531 1229.890625 270.640625 C 1246.640625 287.359375 1249.398438 337.550781 1277.78125 339.039062 C 1312.460938 340.859375 1295.589844 291.039062 1310.730469 274.75 C 1329.761719 254.28125 1395.640625 254.949219 1421.109375 261.589844 C 1491.789062 280.011719 1486.371094 449.859375 1530.890625 459.75 C 1535.589844 460.789062 1537.941406 440.539062 1538.539062 437.890625 C 1543.488281 416.019531 1528.308594 290.660156 1565.601562 283.210938 C 1568.839844 282.570312 1578.660156 320.929688 1586.78125 324.351562 C 1605.910156 332.398438 1606.230469 290.269531 1618.671875 290.269531 C 1629.460938 290.269531 1637.589844 316.289062 1648.210938 318.589844 C 1661.871094 321.558594 1670.078125 297.058594 1681.269531 292.261719 C 1696.121094 285.910156 1716.539062 299.96875 1731.628906 300.488281 C 1745.46875 300.96875 1758.71875 293.199219 1772.578125 293.199219 C 1787.109375 293.199219 1781.050781 324.820312 1798 322.46875 C 1808.871094 320.960938 1815.109375 289.960938 1824.710938 293.558594 C 1839.101562 298.949219 1856.929688 478.929688 1877.539062 388.871094 C 1882.679688 366.429688 1887.648438 169.691406 1874.601562 154.28125 C 1858.328125 135.070312 1780.980469 128.730469 1755.988281 124.308594 C 1624.761719 101.078125 1487.25 111.621094 1354.738281 111.621094 C 1330.378906 111.621094 1305.910156 111.710938 1281.550781 110.910156 C 1230.261719 109.238281 1179.910156 104.808594 1128.820312 111.851562 C 1082.378906 118.25 1060.46875 125.019531 1056.921875 174.609375 C 1056.191406 184.761719 1062.210938 187.519531 1063.039062 194.359375 " />
<path fill-rule="evenodd" fill="rgb(81.639099%, 93.75%, 96.09375%)" fill-opacity="1" d="M 1063.039062 173.359375 C 1066.449219 201.648438 1068.578125 320.191406 1077.390625 323.328125 C 1101.171875 331.808594 1085.660156 238.660156 1091.988281 234.710938 C 1112.261719 222.058594 1127.359375 242.050781 1143.761719 247.640625 C 1176.230469 258.71875 1199.738281 219.519531 1229.890625 249.640625 C 1246.640625 266.359375 1249.398438 316.550781 1277.78125 318.039062 C 1312.460938 319.859375 1295.589844 270.039062 1310.730469 253.75 C 1329.761719 233.28125 1395.640625 233.949219 1421.109375 240.589844 C 1491.789062 259.011719 1486.371094 428.859375 1530.890625 438.75 C 1535.589844 439.789062 1537.941406 419.539062 1538.539062 416.890625 C 1543.488281 395.019531 1528.308594 269.660156 1565.601562 262.210938 C 1568.839844 261.570312 1578.660156 299.929688 1586.78125 303.351562 C 1605.910156 311.398438 1606.230469 269.269531 1618.671875 269.269531 C 1629.460938 269.269531 1637.589844 295.289062 1648.210938 297.589844 C 1661.871094 300.558594 1670.078125 276.058594 1681.269531 271.261719 C 1696.121094 264.910156 1716.539062 278.96875 1731.628906 279.488281 C 1745.46875 279.96875 1758.71875 272.199219 1772.578125 272.199219 C 1787.109375 272.199219 1781.050781 303.820312 1798 301.46875 C 1808.871094 299.960938 1815.109375 268.960938 1824.710938 272.558594 C 1839.101562 277.949219 1856.929688 457.929688 1877.539062 367.871094 C 1882.679688 345.429688 1887.648438 148.691406 1874.601562 133.28125 C 1858.328125 114.070312 1780.980469 107.730469 1755.988281 103.308594 C 1624.761719 80.078125 1487.25 90.621094 1354.738281 90.621094 C 1330.378906 90.621094 1305.910156 90.710938 1281.550781 89.910156 C 1230.261719 88.238281 1179.910156 83.808594 1128.820312 90.851562 C 1082.378906 97.25 1060.46875 104.019531 1056.921875 153.609375 C 1056.191406 163.761719 1062.210938 166.519531 1063.039062 173.359375 " />
<g clip-path="url(#clip-16)">
<g clip-path="url(#clip-17)">
<path fill-rule="evenodd" fill="rgb(91.796875%, 98.4375%, 100%)" fill-opacity="1" d="M 1063.039062 146.289062 C 1066.449219 174.570312 1068.578125 293.109375 1077.390625 296.261719 C 1101.171875 304.738281 1085.660156 211.589844 1091.988281 207.640625 C 1112.261719 194.980469 1127.359375 214.980469 1143.761719 220.570312 C 1176.230469 231.640625 1199.738281 192.449219 1229.890625 222.570312 C 1246.640625 239.289062 1249.398438 289.480469 1277.78125 290.96875 C 1312.460938 292.789062 1295.589844 242.960938 1310.730469 226.679688 C 1329.761719 206.210938 1395.640625 206.878906 1421.109375 213.519531 C 1491.789062 231.929688 1486.371094 401.789062 1530.890625 411.671875 C 1535.589844 412.71875 1537.941406 392.46875 1538.539062 389.808594 C 1543.488281 367.949219 1528.308594 242.589844 1565.601562 235.140625 C 1568.839844 234.488281 1578.660156 272.859375 1586.78125 276.28125 C 1605.910156 284.320312 1606.230469 242.191406 1618.671875 242.191406 C 1629.460938 242.191406 1637.589844 268.210938 1648.210938 270.519531 C 1661.871094 273.488281 1670.078125 248.980469 1681.269531 244.191406 C 1696.121094 237.839844 1716.539062 251.898438 1731.628906 252.421875 C 1745.46875 252.898438 1758.71875 245.128906 1772.578125 245.128906 C 1787.109375 245.128906 1781.050781 276.75 1798 274.398438 C 1808.871094 272.890625 1815.109375 241.890625 1824.710938 245.480469 C 1839.101562 250.878906 1856.929688 430.859375 1877.539062 340.800781 C 1882.679688 318.359375 1887.648438 121.621094 1874.601562 106.210938 C 1858.328125 87 1780.980469 80.660156 1755.988281 76.238281 C 1624.761719 53.011719 1487.25 63.550781 1354.738281 63.550781 C 1330.378906 63.550781 1305.910156 63.628906 1281.550781 62.839844 C 1230.261719 61.171875 1179.910156 56.738281 1128.820312 63.78125 C 1082.378906 70.179688 1060.46875 76.941406 1056.921875 126.539062 C 1056.191406 136.691406 1062.210938 139.449219 1063.039062 146.289062 " />
</g>
</g>
<g clip-path="url(#clip-18)">
<g clip-path="url(#clip-19)">
<path fill-rule="evenodd" fill="rgb(100%, 100%, 100%)" fill-opacity="1" d="M 1041.5 145.609375 C 1030.789062 158.730469 1058.679688 176.109375 1073.75 184.878906 C 1083.140625 190.359375 1093.519531 160.828125 1104.371094 163.378906 C 1118.589844 166.71875 1124.359375 187.910156 1141.269531 187.910156 C 1158.988281 187.910156 1208.730469 165.851562 1217.789062 169.128906 C 1231.550781 174.128906 1244.28125 198.609375 1261.25 197.199219 C 1302.21875 193.789062 1333.230469 163.738281 1385.28125 166.710938 C 1448.75 170.328125 1486.640625 242.851562 1504.351562 246.070312 C 1532.300781 251.140625 1538.851562 199.730469 1565.300781 199.730469 C 1579.089844 199.730469 1573.570312 225.910156 1585.71875 229.109375 C 1604.050781 233.921875 1610.449219 204.789062 1626.761719 202.761719 C 1642.390625 200.800781 1644.140625 224.371094 1656.070312 228.101562 C 1672.25 233.148438 1685.191406 217.929688 1699.941406 214.769531 C 1706.609375 213.339844 1718.03125 219.488281 1725.210938 220.421875 C 1733.339844 221.480469 1753.839844 215.671875 1760.589844 218.511719 C 1766.800781 221.121094 1770.140625 227.679688 1775.75 230.320312 C 1776.628906 230.730469 1777.429688 230.671875 1778.378906 230.519531 C 1793.519531 228.128906 1805.070312 212.71875 1821.339844 211.941406 C 1839.441406 211.078125 1851.210938 261.738281 1874.300781 250.210938 C 1899.21875 237.761719 1910.601562 190.398438 1911.699219 164.988281 C 1915.5 77.671875 1811.269531 70.171875 1747.238281 62.109375 C 1564.921875 39.171875 1377.640625 68.710938 1197.570312 33.140625 C 1053.660156 4.699219 1062.140625 120.320312 1041.5 145.609375 " />
</g>
</g>
</svg>